<?xml version="1.0" encoding="utf-8"?>
<!-- Generator: Adobe Illustrator 16.0.0, SVG Export Plug-In . SVG Version: 6.00 Build 0)  -->
<!DOCTYPE svg PUBLIC "-//W3C//DTD SVG 1.1//EN" "http://www.w3.org/Graphics/SVG/1.1/DTD/svg11.dtd">
<svg version="1.1" id="Layer_1" xmlns="http://www.w3.org/2000/svg" xmlns:xlink="http://www.w3.org/1999/xlink" x="0px" y="0px"
	 width="360.606px" height="432.323px" viewBox="0 0 360.606 432.323" enable-background="new 0 0 360.606 432.323"
	 xml:space="preserve">
<g>
	<path fill="#27B0E5" d="M90.264,332.129c-4.284,15.19-17.625,25.413-32.719,25.413c-18.306,0-33.497-15.384-33.497-33.981
		c0-18.308,14.898-33.498,32.815-33.498c7.305,0,13.343,2.437,18.209,7.205v-5.842h13.245v23.855H72.933
		c-3.411-5.842-8.96-9.148-15.583-9.148c-9.737,0-17.042,7.398-17.042,17.232c0,10.125,7.694,18.209,17.333,18.209
		c6.427,0,11.978-3.407,15.19-9.445H90.264z"/>
	<path fill="#FEDC00" d="M126.796,357.542c-18.794,0-33.986-14.993-33.986-33.689c0-18.6,15.288-33.79,34.082-33.79
		c18.695,0,33.887,15.094,33.887,33.595C160.779,342.452,145.491,357.542,126.796,357.542z M126.796,306.133
		c-9.837,0-17.724,7.886-17.724,17.72c0,9.736,7.987,17.722,17.724,17.722c9.834,0,17.722-7.985,17.722-17.917
		C144.518,314.019,136.63,306.133,126.796,306.133z"/>
	<path fill="#ED313D" d="M213.309,334.855v21.424h-50.247v-13.243h6.234v-38.37h-6.234v-13.24h28.533v13.24h-6.234v37.202h11.882
		v-7.013H213.309z"/>
	<path fill="#F9A61C" d="M254.966,356.279v-11.588h6.233l-2.047-5.938h-18.11l-1.752,5.938h6.135v11.588h-28.629v-13.243h6.232
		l15.871-38.37h-6.134v-13.24h24.733l20.838,51.61h6.232v13.243H254.966z M250.099,310.122l-5.161,16.457h10.419L250.099,310.122z"
		/>
	<path fill="#8CC541" d="M288.047,343.036h6.23v-38.37h-6.23v-13.24h31.257c11.879,0,18.892,6.037,18.892,16.36
		c0,6.522-2.729,11.1-8.181,13.729c6.916,2.922,10.615,8.57,10.615,16.068c0,11.392-7.985,18.696-20.253,18.696h-32.33V343.036z
		 M315.408,316.258c5.939,0,8.082-1.462,8.082-5.552c-0.099-4.09-2.143-5.646-8.082-5.646h-5.064v11.198H315.408z M315.408,342.257
		c6.427,0,8.96-1.851,8.96-6.525c0-4.479-2.727-6.621-8.279-6.621h-5.745v13.146H315.408z"/>
	<g>
		<path fill="#B2B4B6" d="M57.171,387.896H54.13c-2.17-3.309-5.48-5.265-9.171-5.265c-5.75,0-10.471,4.831-10.471,10.745
			c0,5.965,4.721,10.688,10.582,10.688c4.066,0,7.376-2.061,9.223-5.807h3.744c-2.117,5.537-7.164,9.009-12.967,9.009
			c-7.708,0-14.001-6.186-14.001-13.891c0-7.652,6.24-13.998,13.727-13.998c3.637,0,6.568,1.354,9.388,4.283v-3.578h2.987V387.896z"
			/>
		<path fill="#B2B4B6" d="M74.506,407.267c-7.704,0-13.944-6.186-13.944-13.891c0-7.707,6.24-13.998,13.944-13.998
			c7.707,0,13.944,6.239,13.944,13.891C88.45,401.027,82.212,407.267,74.506,407.267z M74.506,382.631
			c-5.804,0-10.527,4.831-10.527,10.745s4.723,10.688,10.527,10.688c5.807,0,10.527-4.774,10.527-10.744
			C85.033,387.462,80.312,382.631,74.506,382.631z"/>
		<path fill="#B2B4B6" d="M104.921,407.267c-7.707,0-13.945-6.186-13.945-13.891c0-7.707,6.238-13.998,13.945-13.998
			c7.704,0,13.943,6.239,13.943,13.891C118.865,401.027,112.625,407.267,104.921,407.267z M104.921,382.631
			c-5.807,0-10.527,4.831-10.527,10.745s4.721,10.688,10.527,10.688c5.807,0,10.524-4.774,10.524-10.744
			C115.446,387.462,110.729,382.631,104.921,382.631z"/>
		<path fill="#B2B4B6" d="M126.873,385.942c0.92-1.573,1.354-2.172,2.277-3.091c2.28-2.283,5.264-3.474,8.574-3.474
			c7.598,0,13.781,6.291,13.781,13.998c-0.054,7.705-6.131,13.891-13.564,13.891c-3.365,0-6.674-1.195-8.898-3.418
			c-0.869-0.814-1.303-1.412-2.169-2.983v12.422h4.447v3.202h-12.208v-3.202h4.446v-30.058h-4.446v-3.146h7.761V385.942z
			 M137.451,382.631c-5.915,0-10.688,4.831-10.688,10.745s4.773,10.688,10.688,10.688c5.86,0,10.638-4.774,10.638-10.688
			S143.367,382.631,137.451,382.631z"/>
		<path fill="#B2B4B6" d="M180.562,399.074c-2.496,5.208-7.105,8.192-12.644,8.192c-7.704,0-13.944-6.13-13.944-13.891
			c0-7.707,6.24-13.998,13.837-13.998c7.651,0,13.89,6.239,13.89,13.891c0,0.268-0.054,0.65-0.054,1.191h-24.307
			c0.65,5.86,4.884,9.822,10.524,9.822c3.908,0,6.943-1.735,9.17-5.208H180.562z M167.812,382.469c-5.263,0-9.604,3.855-10.47,9.278
			h21.214C177.686,386.324,173.239,382.469,167.812,382.469z"/>
		<path fill="#B2B4B6" d="M191.981,385.452c1.631-3.635,4.069-5.262,8.737-5.587v3.364c-5.533,0.432-8.52,3.634-8.52,9.007v11.234
			h4.45v3.144h-12.208v-3.144h4.447v-20.241h-4.447v-3.146h7.54V385.452z"/>
		<path fill="#B2B4B6" d="M230.021,403.471h4.447v3.144h-7.754v-5.587c-1.142,1.681-1.629,2.332-2.499,3.146
			c-2.169,2.005-5.206,3.093-8.41,3.093c-7.541,0-13.782-6.186-13.782-13.837c0-7.706,6.293-14.052,13.891-14.052
			c3.256,0,6.184,1.19,8.355,3.253c0.921,0.87,1.355,1.465,2.39,3.093v-5.641h7.81v3.146h-4.447V403.471z M216.074,382.631
			c-5.856,0-10.634,4.831-10.634,10.745s4.777,10.688,10.634,10.688c5.862,0,10.69-4.828,10.69-10.796
			C226.765,387.406,221.99,382.631,216.074,382.631z"/>
		<path fill="#B2B4B6" d="M248.283,403.471h6.288v3.144h-9.6v-23.385h-5.155v-3.146h5.103v-9.604h3.364v9.604h5.856v3.146h-5.856
			V403.471z"/>
		<path fill="#B2B4B6" d="M268.955,403.471h4.45v3.144h-12.211v-3.144h4.448v-20.241h-4.448v-3.146h7.761V403.471z M268.955,375.687
			h-3.312v-5.208h3.312V375.687z"/>
		<path fill="#B2B4B6" d="M292.122,406.614h-3.687l-9.496-23.385h-4.45v-3.146h12.157v3.146h-4.019l7.705,19.425l7.979-19.425
			h-4.289v-3.146h12.102v3.146h-4.234L292.122,406.614z"/>
		<path fill="#B2B4B6" d="M332.47,399.074c-2.496,5.208-7.108,8.192-12.645,8.192c-7.703,0-13.943-6.13-13.943-13.891
			c0-7.707,6.24-13.998,13.837-13.998c7.649,0,13.891,6.239,13.891,13.891c0,0.268-0.054,0.65-0.054,1.191h-24.31
			c0.653,5.86,4.886,9.822,10.526,9.822c3.904,0,6.944-1.735,9.169-5.208H332.47z M319.719,382.469
			c-5.265,0-9.604,3.855-10.473,9.278h21.217C329.591,386.324,325.146,382.469,319.719,382.469z"/>
	</g>
	<polygon fill="#ED313D" points="230.857,240.517 230.857,208.17 263.208,208.17 263.208,175.823 295.557,175.823 295.557,143.475 
		327.901,143.475 327.901,46.431 295.557,46.431 295.557,14.083 230.857,14.083 230.857,46.431 198.509,46.431 198.509,78.778 
		166.165,78.778 166.165,46.431 133.82,46.431 133.82,14.083 69.122,14.083 69.122,46.431 36.775,46.431 36.775,143.475 
		69.122,143.475 69.122,175.823 101.468,175.823 101.468,208.17 133.82,208.17 133.82,240.517 	"/>
</g>
</svg>
