<?xml version="1.0" encoding="utf-8"?>
<!-- Generator: Adobe Illustrator 16.0.0, SVG Export Plug-In . SVG Version: 6.00 Build 0)  -->
<!DOCTYPE svg PUBLIC "-//W3C//DTD SVG 1.1//EN" "http://www.w3.org/Graphics/SVG/1.1/DTD/svg11.dtd">
<svg version="1.1" id="Layer_1" xmlns="http://www.w3.org/2000/svg" xmlns:xlink="http://www.w3.org/1999/xlink" x="0px" y="0px"
	 width="500.179px" height="129.007px" viewBox="0 0 500.179 129.007" enable-background="new 0 0 500.179 129.007"
	 xml:space="preserve">
<path d="M249.814,44.646c-4.284,15.19-17.625,25.414-32.719,25.414c-18.307,0-33.498-15.385-33.498-33.981
	c0-18.308,14.898-33.498,32.815-33.498c7.306,0,13.343,2.437,18.209,7.205V3.943h13.245v23.855h-15.384
	c-3.411-5.842-8.96-9.148-15.583-9.148c-9.737,0-17.042,7.398-17.042,17.232c0,10.125,7.694,18.209,17.333,18.209
	c6.427,0,11.979-3.406,15.189-9.445H249.814L249.814,44.646z"/>
<path d="M286.345,70.06c-18.793,0-33.985-14.994-33.985-33.689c0-18.6,15.288-33.79,34.082-33.79
	c18.694,0,33.887,15.095,33.887,33.595C320.329,54.97,305.041,70.06,286.345,70.06z M286.345,18.65
	c-9.836,0-17.724,7.887-17.724,17.721c0,9.736,7.987,17.723,17.724,17.723c9.834,0,17.723-7.986,17.723-17.918
	C304.068,26.537,296.179,18.65,286.345,18.65z"/>
<path d="M372.859,47.373v21.424h-50.247V55.554h6.233V17.183h-6.233V3.943h28.533v13.24h-6.234v37.203h11.882v-7.014H372.859z"/>
<path d="M414.515,68.796V57.208h6.234l-2.048-5.938h-18.11l-1.752,5.938h6.135v11.588h-28.629V55.554h6.232l15.871-38.371h-6.134
	V3.943h24.733l20.838,51.611h6.231v13.242H414.515L414.515,68.796z M409.649,22.64l-5.161,16.457h10.419L409.649,22.64z"/>
<path d="M447.597,55.554h6.229V17.183h-6.229V3.943h31.256c11.879,0,18.893,6.037,18.893,16.361c0,6.521-2.729,11.1-8.182,13.729
	c6.916,2.922,10.615,8.57,10.615,16.068c0,11.392-7.984,18.695-20.252,18.695h-32.33V55.554z M474.958,28.775
	c5.938,0,8.082-1.461,8.082-5.551c-0.1-4.09-2.145-5.646-8.082-5.646h-5.064v11.197H474.958z M474.958,54.775
	c6.426,0,8.959-1.852,8.959-6.525c0-4.479-2.727-6.621-8.279-6.621h-5.744v13.146H474.958z"/>
<g>
	<path fill="#AAAAAA" d="M216.72,100.414h-3.041c-2.17-3.309-5.479-5.266-9.17-5.266c-5.75,0-10.472,4.832-10.472,10.746
		c0,5.965,4.722,10.688,10.582,10.688c4.066,0,7.376-2.061,9.224-5.807h3.744c-2.117,5.537-7.164,9.008-12.968,9.008
		c-7.708,0-14.001-6.186-14.001-13.891c0-7.651,6.24-13.998,13.727-13.998c3.638,0,6.568,1.354,9.389,4.283v-3.578h2.986V100.414z"
		/>
	<path fill="#AAAAAA" d="M234.056,119.785c-7.705,0-13.944-6.186-13.944-13.891c0-7.707,6.239-13.998,13.944-13.998
		c7.707,0,13.943,6.238,13.943,13.891C248,113.544,241.761,119.785,234.056,119.785z M234.056,95.148
		c-5.805,0-10.527,4.832-10.527,10.746s4.723,10.688,10.527,10.688c5.807,0,10.527-4.773,10.527-10.744
		C244.583,99.98,239.862,95.148,234.056,95.148z"/>
	<path fill="#AAAAAA" d="M264.47,119.785c-7.707,0-13.944-6.186-13.944-13.891c0-7.707,6.237-13.998,13.944-13.998
		c7.705,0,13.943,6.238,13.943,13.891C278.416,113.544,272.175,119.785,264.47,119.785z M264.47,95.148
		c-5.807,0-10.526,4.832-10.526,10.746s4.722,10.688,10.526,10.688c5.808,0,10.524-4.773,10.524-10.744
		C274.996,99.98,270.279,95.148,264.47,95.148z"/>
	<path fill="#AAAAAA" d="M286.423,98.459c0.92-1.573,1.354-2.172,2.276-3.091c2.28-2.283,5.265-3.475,8.574-3.475
		c7.598,0,13.78,6.291,13.78,13.998c-0.053,7.705-6.131,13.891-13.563,13.891c-3.364,0-6.674-1.193-8.897-3.418
		c-0.869-0.812-1.303-1.412-2.17-2.982v12.422h4.447v3.203h-12.208v-3.203h4.446V95.747h-4.446v-3.146h7.761V98.459L286.423,98.459z
		 M297.001,95.148c-5.916,0-10.688,4.832-10.688,10.746s4.772,10.688,10.688,10.688c5.859,0,10.637-4.773,10.637-10.688
		S302.917,95.148,297.001,95.148z"/>
	<path fill="#AAAAAA" d="M340.112,111.591c-2.496,5.209-7.104,8.191-12.644,8.191c-7.705,0-13.944-6.129-13.944-13.891
		c0-7.707,6.239-13.998,13.837-13.998c7.65,0,13.891,6.24,13.891,13.892c0,0.269-0.055,0.649-0.055,1.19H316.89
		c0.65,5.861,4.884,9.822,10.523,9.822c3.908,0,6.943-1.734,9.17-5.207H340.112L340.112,111.591z M327.362,94.986
		c-5.263,0-9.604,3.855-10.47,9.279h21.214C337.236,98.841,332.789,94.986,327.362,94.986z"/>
	<path fill="#AAAAAA" d="M351.531,97.97c1.631-3.636,4.068-5.263,8.736-5.588v3.364c-5.532,0.433-8.52,3.634-8.52,9.007v11.234h4.45
		v3.145H343.99v-3.145h4.447V95.747h-4.447v-3.146h7.54L351.531,97.97L351.531,97.97z"/>
	<path fill="#AAAAAA" d="M389.571,115.988h4.446v3.145h-7.754v-5.586c-1.142,1.68-1.629,2.332-2.498,3.145
		c-2.17,2.006-5.207,3.094-8.41,3.094c-7.541,0-13.782-6.186-13.782-13.837c0-7.706,6.293-14.052,13.892-14.052
		c3.256,0,6.184,1.189,8.354,3.252c0.921,0.871,1.354,1.466,2.39,3.094v-5.641h7.811v3.146h-4.447L389.571,115.988L389.571,115.988z
		 M375.625,95.148c-5.857,0-10.635,4.832-10.635,10.746s4.777,10.688,10.635,10.688c5.861,0,10.689-4.828,10.689-10.796
		C386.315,99.923,381.541,95.148,375.625,95.148z"/>
	<path fill="#AAAAAA" d="M407.833,115.988h6.287v3.145h-9.6V95.748h-5.155v-3.146h5.103v-9.604h3.365v9.604h5.855v3.146h-5.855
		V115.988L407.833,115.988z"/>
	<path fill="#AAAAAA" d="M428.505,115.988h4.449v3.145h-12.211v-3.145h4.448v-20.24h-4.448v-3.146h7.762V115.988z M428.505,88.205
		h-3.312v-5.208h3.312V88.205z"/>
	<path fill="#AAAAAA" d="M451.671,119.132h-3.687l-9.496-23.386h-4.45v-3.146h12.157v3.146h-4.019l7.705,19.425l7.979-19.425h-4.289
		v-3.146h12.102v3.146h-4.233L451.671,119.132z"/>
	<path fill="#AAAAAA" d="M492.019,111.591c-2.496,5.209-7.107,8.191-12.645,8.191c-7.703,0-13.943-6.129-13.943-13.891
		c0-7.707,6.24-13.998,13.838-13.998c7.648,0,13.891,6.24,13.891,13.892c0,0.269-0.055,0.649-0.055,1.19h-24.309
		c0.652,5.861,4.885,9.822,10.525,9.822c3.904,0,6.943-1.734,9.17-5.207H492.019L492.019,111.591z M479.269,94.986
		c-5.266,0-9.604,3.855-10.473,9.279h21.217C489.14,98.841,484.697,94.986,479.269,94.986z"/>
</g>
<polygon fill="#ED313D" points="108.829,126.174 108.829,108.16 126.846,108.16 126.846,90.146 144.861,90.146 144.861,72.132 
	162.873,72.132 162.873,18.088 144.861,18.088 144.861,0.074 108.829,0.074 108.829,18.088 90.815,18.088 90.815,36.102 
	72.803,36.102 72.803,18.088 54.791,18.088 54.791,0.074 18.76,0.074 18.76,18.088 0.747,18.088 0.747,72.132 18.76,72.132 
	18.76,90.146 36.773,90.146 36.773,108.16 54.791,108.16 54.791,126.174 "/>
</svg>
