<?xml version="1.0" encoding="utf-8"?>
<!-- Generator: Adobe Illustrator 16.0.0, SVG Export Plug-In . SVG Version: 6.00 Build 0)  -->
<!DOCTYPE svg PUBLIC "-//W3C//DTD SVG 1.1//EN" "http://www.w3.org/Graphics/SVG/1.1/DTD/svg11.dtd">
<svg version="1.1" id="Layer_1" xmlns="http://www.w3.org/2000/svg" xmlns:xlink="http://www.w3.org/1999/xlink" x="0px" y="0px"
	 width="94.562px" height="103.811px" viewBox="0 0 94.562 103.811" enable-background="new 0 0 94.562 103.811"
	 xml:space="preserve">
<g>
	<g>
		<g>
			<g>
				<rect x="1.596" y="76.364" width="6.346" height="26.941"/>
				<circle cx="4.769" cy="66.95" r="4.769"/>
			</g>
			<path d="M10.744,89.598c0-7.599,6.16-13.758,13.758-13.758C32.1,75.84,38.26,82,38.26,89.598v13.707h-6.469V89.598
				c0-4.027-3.264-7.289-7.29-7.289c-4.026,0-7.289,3.262-7.289,7.289v13.707h-6.469V89.598z"/>
			<path d="M80.23,86.697c-1.736-7.517-9.235-12.204-16.754-10.468c-7.515,1.734-12.203,9.235-10.466,16.752
				c1.733,7.518,9.235,12.205,16.752,10.469C77.28,101.713,81.964,94.213,80.23,86.697z M68.291,97.036
				c-3.979,0.92-7.951-1.562-8.871-5.541c-0.919-3.982,1.562-7.953,5.543-8.873s7.953,1.562,8.871,5.545
				C74.75,92.147,72.27,96.119,68.291,97.036z"/>
			<g>
				<rect x="38.256" y="76.364" width="14.996" height="6.345"/>
				<rect x="41.676" y="68.176" width="6.346" height="35.129"/>
			</g>
			<g>
				<g>
					<path d="M37.718,18.716c-2.383,7.586-10.464,11.811-18.051,9.43c-7.589-2.38-11.815-10.464-9.433-18.053
						c2.389-7.589,10.464-11.809,18.06-9.43C35.873,3.046,40.098,11.126,37.718,18.716z"/>
					<path d="M78.716,59.552c-2.392,7.587-10.473,11.804-18.06,9.423c-7.588-2.377-11.804-10.462-9.425-18.051
						c2.382-7.591,10.464-11.806,18.055-9.425C76.873,43.881,81.089,51.957,78.716,59.552z"/>
					<g>
						<path d="M41.752,32.148c-1.102,1.001-3.432,0.9-7.406-0.246c-10.23-2.948-20.909,2.903-23.887,13.129
							C7.492,55.244,13.368,65.94,23.59,68.907c10.221,2.979,20.91-2.899,23.877-13.122c1.082-3.704,0.043-10.266-0.663-12.35
							c-1.154-3.43-0.562-4.92,0.318-5.922c1.526-1.719,3.9-0.761,7.58,0.305c10.213,2.973,20.911-2.906,23.889-13.123
							C81.559,14.474,75.68,3.783,65.46,0.81C55.242-2.162,44.55,3.717,41.582,13.933c-1.299,4.441-1.123,8.246,0.804,13.247
							C43.4,29.826,42.731,31.259,41.752,32.148z"/>
					</g>
					<path d="M28.603,49.226"/>
				</g>
			</g>
		</g>
	</g>
	<g>
		<path d="M83.199,76.46H82.13v-6.708h-2.453v-0.939h5.975v0.939h-2.453V76.46z"/>
		<path d="M90.62,74.689h0.022l2.257-5.876h1.663v7.647h-1.068v-6.395h-0.021l-2.539,6.395h-0.681l-2.527-6.395h-0.022v6.395h-1.036
			v-7.647h1.663L90.62,74.689z"/>
	</g>
</g>
</svg>
