<?xml version="1.0" encoding="UTF-8"?>
<svg width="124px" height="127px" viewBox="0 0 124 127" version="1.1" xmlns="http://www.w3.org/2000/svg" xmlns:xlink="http://www.w3.org/1999/xlink">
    <!-- Generator: Sketch 40.3 (33839) - http://www.bohemiancoding.com/sketch -->
    <title>cornell-logo</title>
    <desc>Created with Sketch.</desc>
    <defs>
        <polygon id="path-1" points="0 111.944 111.1824 111.944 111.1824 0.816666667 0 0.816666667"></polygon>
    </defs>
    <g id="Page-1" stroke="none" stroke-width="1" fill="none" fill-rule="evenodd">
        <g id="cornell-logo">
            <g id="CULogo-red120px" transform="translate(6.000000, 8.000000)">
                <path d="M31.9844,51.7561333 L54.628,51.7561333 L54.628,56.7242667 C54.2584,56.6589333 53.2214667,56.5077333 52.0828,56.6402667 C51.4089333,56.7009333 50.7817333,56.7672 50.1946667,56.8297333 C49.1829333,56.938 48.314,57.0313333 47.5626667,57.0481333 C46.6088,57.0705333 45.8490667,57.0714667 45.2209333,57.0705333 C44.7701333,57.0705333 44.3828,57.0705333 44.0468,57.078 L43.1349333,57.0985333 L43.1349333,61.8949333 L40.8986667,61.8949333 L40.8986667,64.5017333 L43.1349333,64.5017333 L43.1349333,69.2981333 L40.8986667,69.2981333 L40.8986667,71.8965333 L43.1349333,71.8965333 L43.1349333,77.2314667 L44.016,77.2781333 C44.0682667,77.2828 45.2825333,77.3453333 46.8542667,77.3126667 C48.44,77.2781333 49.5544,77.1736 50.54,77.0868 C51.5536,76.9953333 52.43,76.9141333 53.6265333,76.9141333 C54.096,76.9085333 54.2528,77.0550667 54.5057333,77.3742667 C54.5402667,77.4172 54.586,77.4666667 54.628,77.5142667 L54.628,90.6322667 C49.1362667,87.9321333 31.9834667,78.3038667 31.9834667,63.4722667 L31.9844,51.7561333 L31.9844,51.7561333 Z M31.9862667,31.4673333 L79.6012,31.4617333 L79.6021333,49.2632 L31.9853333,49.2632 L31.9862667,31.4673333 L31.9862667,31.4673333 Z M56.7588,75.2910667 L56.7588,58.7402667 C56.8801333,58.6833333 57.0238667,58.6264 57.2208,58.5816 C57.232,58.5778667 58.2446667,58.3716 59.3656,58.5032 C60.0338667,58.5601333 60.6526667,58.6226667 61.2313333,58.6908 C62.2804,58.7981333 63.1848,58.8961333 64.0089333,58.9185333 C64.8405333,58.9362667 65.5293333,58.9362667 66.1108,58.9362667 L66.6101333,58.9362667 L66.612,75.4450667 C66.1369333,75.4544 65.5097333,75.4637333 64.8078667,75.4450667 C63.2856,75.4124 62.2468,75.3172 61.2444,75.2276 C60.2177333,75.1314667 59.2965333,75.0428 57.9357333,75.0456 C57.4532,75.0456 57.0789333,75.1510667 56.7588,75.2910667 L56.7588,75.2910667 Z M79.6049333,64.0789333 C79.6049333,78.4504 61.9565333,88.1925333 56.7588,90.7470667 L56.7588,77.672 C56.8577333,77.5786667 56.9473333,77.4844 57.0192,77.4013333 C57.2796,77.098 57.4429333,76.9169333 57.9413333,76.9141333 C59.1425333,76.9318667 60.0469333,76.9916 61.0773333,77.0868 C62.0629333,77.1736 63.1754667,77.2781333 64.7630667,77.3126667 C66.3273333,77.3518667 67.5472,77.2828 67.5976,77.2781333 L68.4824,77.2314667 L68.4814667,72.3482667 L70.5506667,72.3482667 L70.5506667,69.7424 L68.4805333,69.7424 L68.4796,65.0132 L70.5506667,65.0132 L70.5506667,62.4110667 L68.4786667,62.4110667 L68.4768,57.0985333 L67.5677333,57.078 C67.2326667,57.0686667 66.85,57.0686667 66.3964,57.0705333 C65.7617333,57.0621333 65.0085333,57.0705333 64.0537333,57.0481333 C63.3098667,57.0313333 62.4362667,56.938 61.4282667,56.8297333 C60.8421333,56.7672 60.2102667,56.7009333 59.5541333,56.6421333 C58.1410667,56.4797333 56.8941333,56.7373333 56.8194667,56.756 C56.7970667,56.7606667 56.7812,56.7681333 56.7588,56.7737333 L56.7588,51.7561333 L79.6030667,51.7561333 L79.6049333,64.0789333 L79.6049333,64.0789333 Z M54.628,75.2098667 C54.3573333,75.1156 54.0586667,75.0456 53.6862667,75.0456 L53.6265333,75.0456 C52.346,75.0456 51.3893333,75.1342667 50.3729333,75.2248 C49.3705333,75.3172 48.3317333,75.4124 46.8076,75.4450667 C46.1085333,75.46 45.4794667,75.4544 45.0034667,75.4450667 L45.0034667,58.9362667 L45.2209333,58.9362667 C45.8556,58.9418667 46.634,58.9362667 47.6074667,58.9185333 C48.4344,58.8961333 49.3397333,58.7981333 50.3897333,58.6861333 C50.9665333,58.6226667 51.5816,58.5601333 52.2704,58.4994667 C53.3624,58.38 54.3685333,58.576 54.3685333,58.576 C54.4712,58.5993333 54.544,58.6310667 54.628,58.6590667 L54.628,75.2098667 L54.628,75.2098667 Z M42.5077333,85.9712 C48.8404,90.9636 55.0788,93.6030667 55.3429333,93.7113333 L55.8254667,93.9157333 L56.3089333,93.7085333 C56.5730667,93.5928 62.79,90.9169333 69.1030667,85.9786667 C77.6048,79.3277333 82.0978667,71.7574667 82.0978667,64.0789333 L82.0904,28.9725333 L29.4970667,28.9762667 L29.4952,63.4722667 C29.4952,71.47 33.9929333,79.2474667 42.5077333,85.9712 L42.5077333,85.9712 Z" id="Fill-1" fill="#A02629"></path>
                <path d="M49.9968,42.1633333 C49.9846667,42.6272 49.3892,43.1190667 48.8945333,43.4476 C47.7484,44.2185333 46.0226667,45.1985333 45.2041333,45.6577333 C44.4248,45.1901333 42.8073333,44.2185333 41.6612,43.4466667 C40.9136,42.9501333 40.4712,42.4564 40.4469333,42.0933333 C40.4441333,41.9570667 40.4422667,40.8492 40.4422667,39.4034667 L50.0042667,39.4034667 C50.0042667,40.8585333 50.0024,41.9869333 49.9968,42.1633333 L49.9968,42.1633333 Z M40.446,35.1148 L50.0014667,35.1148 C50.0024,35.8913333 50.0033333,36.7248 50.0033333,37.5349333 L40.4432,37.5349333 C40.4441333,36.7248 40.4450667,35.8922667 40.446,35.1148 L40.446,35.1148 Z M51.8653333,33.2490667 L38.5765333,33.2490667 L38.5765333,34.1805333 C38.5718667,37.0832 38.5681333,41.9906667 38.5877333,42.2156 C38.6502667,43.2217333 39.3166667,44.1326667 40.6186667,44.9997333 C42.2230667,46.0758667 44.6152,47.4768 44.716,47.5365333 L45.1714667,47.8034667 L45.6306667,47.5505333 C45.7398667,47.4908 48.3205333,46.0842667 49.9333333,44.9997333 C51.8186667,43.7434667 51.8504,42.5973333 51.8634667,42.2156 C51.8793333,42.0084 51.8746667,37.7318667 51.8653333,34.1805333 L51.8653333,33.2490667 L51.8653333,33.2490667 Z" id="Fill-2" fill="#A02629"></path>
                <path d="M67.4314667,35.7392 L62.7582667,39.116 C62.7564,37.7738667 62.7564,36.1554667 62.7592,34.7218667 L72.6124,34.7218667 C72.6170667,36.1825333 72.6226667,37.8392 72.6226667,39.2046667 L67.4314667,35.7392 L67.4314667,35.7392 Z M72.6124,41.9878667 C72.6012,42.4685333 71.9889333,42.9762667 71.4756,43.3253333 C70.2912,44.1149333 68.502,45.1257333 67.6676,45.5924 C66.8724,45.1201333 65.2073333,44.1149333 64.0248,43.3253333 C63.6608,43.0798667 62.8077333,42.4526667 62.7676,41.9066667 C62.7657333,41.8562667 62.7648,41.6826667 62.7638667,41.4157333 L67.4725333,38.0156 L72.6189333,41.4456 C72.6170667,41.7302667 72.6152,41.9216 72.6124,41.9878667 L72.6124,41.9878667 Z M74.48,32.8542667 L60.8934667,32.8542667 L60.8934667,33.7866667 C60.8906667,37.4341333 60.8906667,41.8198667 60.9037333,42.0466667 C60.9793333,43.0593333 61.6578667,43.9898667 62.9841333,44.8728 C64.6249333,45.9741333 67.0749333,47.4114667 67.1804,47.4730667 L67.6349333,47.74 L68.0969333,47.4842667 C68.2070667,47.4282667 70.8568,45.9881333 72.5125333,44.8728 C74.4464,43.5838667 74.4734667,42.4134667 74.48,42.0261333 C74.494,41.8198667 74.4902667,37.4304 74.4818667,33.7857333 L74.48,32.8542667 L74.48,32.8542667 Z" id="Fill-3" fill="#A02629"></path>
                <path d="M59.1836,62.4381333 L60.0721333,62.5277333 C60.6769333,62.5977333 61.1986667,62.6481333 61.6532,62.6593333 L64.4009333,62.7386667 L64.4438667,60.8654667 L61.6989333,60.7908 C61.2882667,60.7824 60.8188,60.732 60.2718667,60.6732 L59.3637333,60.5817333 C59.1210667,60.5556 58.8886667,60.5509333 58.6758667,60.5602667 L58.7570667,62.4232 C58.8849333,62.4166667 59.0277333,62.4232 59.1836,62.4381333" id="Fill-4" fill="#A02629"></path>
                <path d="M61.7129333,65.968 C61.3218667,65.9558667 60.872,65.9054667 60.3596,65.8522667 C60.0506667,65.8168 59.7221333,65.7822667 59.388,65.7524 C59.15,65.7272 58.926,65.7234667 58.716,65.7272 L58.7458667,67.5957333 C58.8784,67.5910667 59.0277333,67.5957333 59.2013333,67.6125333 C59.5457333,67.6452 59.864,67.6778667 60.1617333,67.7096 C60.7338667,67.7702667 61.2332,67.8216 61.67,67.8346667 C62.2421333,67.8412 63.0774667,67.8682667 63.6990667,67.8804 L64.4168,67.9 L64.4597333,66.0370667 L63.7448,66.0137333 C63.1250667,65.9997333 62.2841333,65.9745333 61.7129333,65.968" id="Fill-5" fill="#A02629"></path>
                <path d="M61.7138667,71.1358667 C61.3144,71.1218667 60.8608,71.0742667 60.3362667,71.0154667 C60.0310667,70.9818667 59.7137333,70.9492 59.3917333,70.9193333 C59.1434667,70.8932 58.9157333,70.8848 58.7048,70.8932 L58.7608,72.7570667 C58.8886667,72.7570667 59.0314667,72.7570667 59.2013333,72.7776 C59.5308,72.8084 59.8444,72.8457333 60.1337333,72.87 C60.7170667,72.9362667 61.2238667,72.9876 61.6672,73.0016 L62.4409333,73.0202667 C63.2324,73.0417333 64.1116,73.0622667 64.4186667,73.0697333 L64.456,71.1993333 C64.1470667,71.1928 63.2716,71.176 62.4922667,71.1517333 L61.7138667,71.1358667" id="Fill-6" fill="#A02629"></path>
                <path d="M49.9062667,62.6369333 C50.3617333,62.6294667 50.8834667,62.5725333 51.4873333,62.5053333 C51.7673333,62.4764 52.0641333,62.4465333 52.3805333,62.4110667 C52.5261333,62.4017333 52.6745333,62.3914667 52.8042667,62.3970667 L52.8322667,60.5266667 C52.64,60.5266667 52.4253333,60.5350667 52.2069333,60.5556 C51.8774667,60.5836 51.5704,60.6190667 51.2848,60.6526667 C50.7444,60.7068 50.2796,60.7637333 49.8642667,60.7674667 L47.1193333,60.8384 L47.1632,62.7088 L49.9062667,62.6369333" id="Fill-7" fill="#A02629"></path>
                <path d="M51.3016,65.8168 C50.7602667,65.8756 50.2898667,65.9278667 49.8792,65.9381333 L47.1342667,66.01 L47.1772,67.8794667 L49.9212,67.8076 C50.3813333,67.7964 50.9002667,67.7376 51.5041333,67.6741333 L52.3805333,67.5826667 C52.5214667,67.5714667 52.6605333,67.5649333 52.7893333,67.5705333 L52.8742667,65.7038667 C52.6801333,65.6945333 52.4570667,65.7038667 52.2190667,65.7234667 L51.3016,65.8168" id="Fill-8" fill="#A02629"></path>
                <path d="M51.3034667,70.9818667 C50.7602667,71.0425333 50.2917333,71.0976 49.7886667,71.1050667 C48.9197333,71.1284 47.544,71.1713333 47.138,71.1816 L47.1725333,73.0473333 C47.5804,73.0352 48.9673333,72.9988 49.924,72.9736 C50.3794667,72.9614667 50.9002667,72.9036 51.506,72.8392 L52.4132,72.7486667 C52.5513333,72.7328 52.6894667,72.73 52.8154667,72.7328 L52.8444,70.868 C52.6465333,70.8624 52.4272,70.868 52.2218667,70.8866667 L51.3034667,70.9818667" id="Fill-9" fill="#A02629"></path>
                <path d="M8.4252,56.7056 C10.7604,56.7056 12.1921333,55.2113333 12.3657333,52.6166667 C12.3909333,52.1070667 12.3536,51.5424 12.2266667,50.848 L12.1828,50.6202667 L10.2554667,50.6025333 L10.4356,50.9982667 C10.5737333,51.3072 10.6558667,51.9586667 10.6241333,52.5046667 C10.5373333,53.8552 9.52186667,54.6802667 8.09106667,54.5822667 C6.636,54.4898667 5.712,53.5462667 5.78946667,52.2293333 C5.8184,51.8018667 5.8912,51.3286667 6.24586667,50.8004 L6.48666667,50.4270667 L4.58453333,50.148 L4.49586667,50.3384 C4.25413333,50.8526667 4.08986667,51.5088 4.05533333,52.0884 C3.88826667,54.8016 5.38626667,56.5254667 8.0668,56.6944 C8.1872,56.7009333 8.3076,56.7056 8.4252,56.7056" id="Fill-10" fill="#A02629"></path>
                <path d="M7.49653333,43.1190667 C7.7784,42.1129333 8.63333333,41.902 9.3016,41.902 C9.61706667,41.902 9.96053333,41.9524 10.2974667,42.0466667 C11.1132,42.2818667 11.7497333,42.7074667 12.0372,43.2217333 C12.2397333,43.5838667 12.2761333,43.9917333 12.1510667,44.4434667 C11.8617333,45.4524 11.0217333,45.6633333 10.3656,45.6633333 C10.0333333,45.6633333 9.67773333,45.6092 9.30346667,45.5046667 C8.2432,45.2013333 7.1316,44.3968 7.49653333,43.1190667 L7.49653333,43.1190667 Z M8.7304,47.5402667 C9.24746667,47.684 9.75146667,47.7596 10.2274667,47.7596 C11.9998667,47.7596 13.3112,46.7245333 13.8264,44.9194667 C14.1325333,43.8414667 14.0457333,42.8204 13.5734667,41.9785333 C13.0573333,41.0433333 12.1193333,40.3741333 10.8714667,40.0204 C10.3730667,39.8785333 9.88866667,39.8085333 9.4304,39.8085333 C7.64586667,39.8085333 6.32986667,40.8426667 5.82026667,42.6449333 C5.1576,44.9642667 6.27573333,46.8374667 8.7304,47.5402667 L8.7304,47.5402667 Z" id="Fill-11" fill="#A02629"></path>
                <path d="M12.5832,34.5921333 L12.4805333,34.7741333 L11.1888,34.0844 L11.2858667,33.9033333 C11.6116,33.3022667 11.9606667,32.8038667 12.5122667,33.096 C12.7092,33.2024 12.8230667,33.3246667 12.8716,33.4777333 C12.9733333,33.8034667 12.7512,34.2692 12.5832,34.5921333 L12.5832,34.5921333 Z M16.7748,37.0608 L14.0242667,35.5898667 L14.1129333,35.42 C14.3714667,34.9272 14.5712,34.9701333 14.9958667,35.0214667 L17.6792,35.364 L18.7385333,33.3629333 L15.1722667,32.9914667 C14.9352,32.9737333 14.6748,32.9812 14.476,33.0297333 C14.5058667,32.2690667 14.1110667,31.556 13.3896,31.1714667 C12.9854667,30.9586667 12.5981333,30.8494667 12.2350667,30.8494667 C10.9321333,30.8494667 10.2405333,32.1636 9.62733333,33.3246667 L8.694,35.0756 L15.8144,38.8696 L16.7748,37.0608 L16.7748,37.0608 Z" id="Fill-12" fill="#A02629"></path>
                <polyline id="Fill-13" fill="#A02629" points="21.2230667 30.0449333 17.5644 27.0116 22.7537333 28.1922667 24.1994667 26.4516 17.9918667 21.2986667 16.7290667 22.8293333 20.3868 25.8636 15.2049333 24.6661333 13.7498667 26.4208 19.9584 31.5672 21.2230667 30.0449333"></polyline>
                <polyline id="Fill-14" fill="#A02629" points="30.1952 21.3257333 29.0966667 19.9714667 26.8445333 21.8054667 25.8664 20.6014667 27.9216 18.9354667 26.8128 17.584 24.7669333 19.2518667 23.9558667 18.2504 26.1893333 16.4322667 25.0889333 15.0789333 21.2706667 18.1906667 26.3582667 24.4468 30.1952 21.3257333"></polyline>
                <polyline id="Fill-15" fill="#A02629" points="36.8909333 17.3292 36.0294667 15.8032 33.5318667 17.2106667 30.4313333 11.7030667 28.6449333 12.7129333 32.5966667 19.7362667 36.8909333 17.3292"></polyline>
                <polyline id="Fill-16" fill="#A02629" points="43.6622667 14.7345333 43.064 13.0956 40.3666667 14.0737333 38.2153333 8.13213333 36.2908 8.8312 39.032 16.4089333 43.6622667 14.7345333"></polyline>
                <path d="M51.7813333,13.3998667 C51.9418667,13.3998667 52.1070667,13.3905333 52.2741333,13.3746667 C53.3904,13.2804 54.2098667,12.9304 54.7176,12.3349333 C55.1954667,11.7646667 55.3961333,10.976 55.3121333,9.99413333 L54.8949333,4.9336 L52.8546667,5.09786667 L53.2364,9.702 C53.3698667,11.326 52.7184,11.5873333 52.1369333,11.6424 C52.0856,11.6424 52.0352,11.648 51.9885333,11.648 C51.5106667,11.648 50.8564,11.4678667 50.7266667,9.9092 L50.3496,5.3088 L48.314,5.47773333 L48.7312,10.5392 C48.8852,12.4077333 49.9352,13.3998667 51.7813333,13.3998667" id="Fill-17" fill="#A02629"></path>
                <polyline id="Fill-18" fill="#A02629" points="61.0129333 8.5848 62.7554667 13.6210667 65.0001333 13.9253333 66.0837333 5.9304 64.1209333 5.66533333 63.4853333 10.3805333 61.7446667 5.3452 59.4962667 5.04 58.4164 13.0377333 60.3773333 13.3018667 61.0129333 8.5848"></polyline>
                <polyline id="Fill-19" fill="#A02629" points="72.1373333 7.658 70.1885333 7.04013333 67.7712 14.7410667 69.7228 15.3505333 72.1373333 7.658"></polyline>
                <polyline id="Fill-20" fill="#A02629" points="82.2472 12.1893333 80.4048 11.2616 76.5137333 15.2208 77.3770667 9.73746667 75.4273333 8.74253333 74.2298667 17.1808 76.2150667 18.1794667 82.2472 12.1893333"></polyline>
                <polyline id="Fill-21" fill="#A02629" points="84.2650667 23.7197333 85.3412 22.3514667 83.0470667 20.5594667 84.0037333 19.3358667 86.0813333 20.9654667 87.1546667 19.5925333 85.0724 17.9629333 85.8676 16.9484 88.1393333 18.7226667 89.2164 17.3553333 85.3346667 14.3164 80.3674667 20.6696 84.2650667 23.7197333"></polyline>
                <path d="M92.3505333,22.9376 L92.4896,23.0962667 C92.7770667,23.4294667 93.0757333,23.8037333 93.0486667,24.1136 C93.0449333,24.2554667 92.9656,24.3889333 92.8106667,24.5252 C92.6604,24.6558667 92.5148,24.7230667 92.3654667,24.7230667 C92.022,24.7230667 91.6636,24.3684 91.3910667,24.0594667 L91.2548,23.9026667 L92.3505333,22.9376 L92.3505333,22.9376 Z M87.6026667,27.1021333 L89.9444,25.0478667 L90.0750667,25.1990667 C90.3756,25.5425333 90.3849333,25.6881333 90.1366667,26.1669333 L88.8692,28.5544 L90.3634667,30.254 L91.9762667,27.0405333 C92.0313333,26.9238667 92.1470667,26.6737333 92.1853333,26.3853333 C92.876,26.6877333 93.7066667,26.5505333 94.3077333,26.026 C96.0428,24.4990667 94.6549333,22.9142667 93.6422667,21.7597333 L92.3169333,20.2496 L86.2502667,25.5705333 L87.6026667,27.1021333 L87.6026667,27.1021333 Z" id="Fill-22" fill="#A02629"></path>
                <path d="M95.1197333,33.5561333 C94.7230667,33.7894667 94.2284,33.3937333 94.0025333,33.0148 C93.7514667,32.5864 93.6068,32.0497333 93.5890667,31.4701333 L93.5732,31.0492 L91.728,31.9013333 L91.8586667,32.3138667 C92.0406667,32.9373333 92.1536,33.3144 92.5437333,33.9752 C93.1998667,35.0858667 94.0734667,35.6981333 94.9984,35.6981333 C95.4296,35.6981333 95.8645333,35.5693333 96.2957333,35.3089333 C97.7237333,34.4661333 97.4988,33.1249333 97.3373333,32.1458667 C97.2244,31.4533333 97.1693333,31.024 97.4577333,30.8532 C97.6014667,30.772 97.7349333,30.7318667 97.8618667,30.7318667 C98.2314667,30.7318667 98.4769333,31.0818667 98.5665333,31.2293333 C98.8008,31.6269333 98.9538667,32.0973333 99.0192,32.5826667 L99.0696,32.9578667 L100.7468,32.1981333 L100.702,31.976 C100.5844,31.4048 100.352933,30.8336 100.000133,30.2316 C99.1209333,28.7541333 97.6789333,28.2753333 96.3312,29.0733333 C94.9508,29.8872 95.1496,31.1994667 95.2989333,32.1524 C95.4221333,32.9084 95.4725333,33.3498667 95.1197333,33.5561333" id="Fill-23" fill="#A02629"></path>
                <polyline id="Fill-24" fill="#A02629" points="96.0428 40.8585333 103.511333 37.8112 102.736667 35.9174667 95.2728 38.9657333 96.0428 40.8585333"></polyline>
                <polyline id="Fill-25" fill="#A02629" points="103.539333 43.5082667 97.3998667 45.0156 97.8861333 47.0082667 104.027467 45.4925333 104.538933 47.5561333 106.2264 47.1408 104.7228 41.0330667 103.026933 41.4474667 103.539333 43.5082667"></polyline>
                <polyline id="Fill-26" fill="#A02629" points="98.8166667 53.2821333 98.9305333 55.3261333 102.097333 55.1478667 107.141067 57.7350667 107.022533 55.5146667 104.077867 54.0558667 106.8424 52.3208 106.7108 49.9221333 101.9816 53.1076 98.8166667 53.2821333"></polyline>
                <polyline id="Fill-27" fill="#A02629" points="9.996 71.7434667 11.6685333 71.26 10.9676 68.8286667 12.2005333 68.4712 12.9425333 71.0304 14.6169333 70.5413333 13.3093333 66.0081333 5.5524 68.2444 6.13106667 70.2202667 9.29413333 69.3046667 9.996 71.7434667"></polyline>
                <path d="M13.972,78.8984 C13.4596,79.1513333 12.9518667,79.2848 12.5010667,79.2848 C11.8010667,79.2848 11.2933333,78.9646667 10.9806667,78.3384 C10.7716,77.91 10.7333333,77.4928 10.8696,77.0970667 C11.0581333,76.5408 11.606,76.0078667 12.3713333,75.6326667 C12.8464,75.4012 13.3373333,75.2733333 13.7825333,75.2733333 C14.4993333,75.2733333 15.0201333,75.5878667 15.3197333,76.2085333 C15.5278667,76.6313333 15.5605333,77.0494667 15.4233333,77.4545333 C15.2301333,78.0145333 14.7009333,78.5474667 13.972,78.8984 L13.972,78.8984 Z M17.1798667,78.4308 C17.4944,77.4993333 17.3954667,76.4652 16.8830667,75.4376 C16.1709333,73.9816 14.9874667,73.1826667 13.5678667,73.1826667 C12.8846667,73.1826667 12.1650667,73.3646667 11.4333333,73.724 C10.2554667,74.3036 9.45373333,75.1314667 9.12053333,76.1189333 C8.80226667,77.0410667 8.9096,78.0761333 9.4192,79.1074667 C10.1304,80.5522667 11.3166667,81.3456 12.7689333,81.3456 C13.4614667,81.3456 14.1848,81.1626667 14.91,80.8070667 C16.0552,80.2414667 16.8392,79.4229333 17.1798667,78.4308 L17.1798667,78.4308 Z" id="Fill-28" fill="#A02629"></path>
                <path d="M22.7378667,84.6785333 L19.1258667,87.5532 C18.1524,88.3316 17.4561333,88.4016 16.8961333,87.6950667 C16.6656,87.4048 16.5704,87.1276 16.6058667,86.8476 C16.6534667,86.4462667 16.9698667,86.0169333 17.5494667,85.554 L21.1568,82.6849333 L19.8725333,81.074 L15.8993333,84.2277333 C15.0724,84.8848 14.6318667,85.6230667 14.5973333,86.4229333 C14.56,87.1630667 14.8773333,87.9601333 15.5362667,88.7814667 C16.3184,89.7689333 17.1584,90.2636 18.0404,90.2636 C18.6928,90.2636 19.3666667,89.992 20.0461333,89.4525333 L24.0221333,86.2932 L22.7378667,84.6785333" id="Fill-29" fill="#A02629"></path>
                <polyline id="Fill-30" fill="#A02629" points="29.5969333 91.2426667 26.5822667 94.9228 27.7302667 89.7092 25.9485333 88.2578667 20.8357333 94.5 22.386 95.7562667 25.4034667 92.0696 24.2685333 97.3018667 26.0288 98.7466667 31.1406667 92.5036 29.5969333 91.2426667"></polyline>
                <path d="M35.952,99.7705333 C35.5348,100.605867 34.8124,101.079067 33.9696,101.079067 C33.6252,101.079067 33.2826667,100.995067 32.9746667,100.838267 L32.4753333,100.594667 L34.5352,96.4945333 L35.0317333,96.7456 C35.5497333,97.0069333 35.9501333,97.4605333 36.1274667,98 C36.3094667,98.5618667 36.2497333,99.1750667 35.952,99.7705333 L35.952,99.7705333 Z M35.5534667,95.0590667 L33.4768,94.0137333 L29.8498667,101.224667 L31.9274667,102.262533 C32.9270667,102.766533 33.8006667,103.008267 34.5996,103.008267 C35.9949333,103.008267 37.0906667,102.245733 37.8532,100.730933 C39.0534667,98.3406667 38.2834667,96.4329333 35.5534667,95.0590667 L35.5534667,95.0590667 Z" id="Fill-31" fill="#A02629"></path>
                <polyline id="Fill-32" fill="#A02629" points="40.0045333 105.701867 44.8308 106.986133 45.2806667 105.307067 42.4424 104.545467 42.8381333 103.052133 45.416 103.739067 45.8696 102.060933 43.2889333 101.369333 43.6184 100.1224 46.4333333 100.870933 46.8878667 99.1918667 42.0793333 97.9038667 40.0045333 105.701867"></polyline>
                <path d="M51.8308,106.1452 L51.2754667,106.1172 L51.5405333,101.545733 L52.0874667,101.574667 C53.1729333,101.633467 54.2276,102.4828 54.1454667,103.976133 C54.054,105.532 52.8817333,106.202133 51.8308,106.1452 L51.8308,106.1452 Z M51.9036,99.8153333 L49.574,99.6818667 L49.1232,107.7384 L51.4425333,107.870933 C51.6208,107.882133 51.7972,107.884933 51.9726667,107.884933 C54.6756,107.884933 56.1204,106.6128 56.2641333,104.104 C56.3313333,102.859867 56.0494667,101.873333 55.4157333,101.163067 C54.6858667,100.350133 53.5350667,99.9077333 51.9036,99.8153333 L51.9036,99.8153333 Z" id="Fill-33" fill="#A02629"></path>
                <path d="M64.6352,103.641067 L64.8928,101.534533 L65.9941333,103.348933 L64.6352,103.641067 L64.6352,103.641067 Z M63.3658667,99.2068 L61.9948,107.745867 L64.106,107.2904 L64.3832,105.4816 L66.9732,104.914133 L67.9578667,106.470933 L70.1698667,105.9884 L65.394,98.7737333 L63.3658667,99.2068 L63.3658667,99.2068 Z" id="Fill-34" fill="#A02629"></path>
                <polyline id="Fill-35" fill="#A02629" points="71.0304 103.375067 71.7294667 105.3136 73.6698667 104.614533 72.9633333 102.671333 71.0304 103.375067"></polyline>
                <path d="M78.2273333,100.633867 L77.7429333,100.897067 L75.5589333,96.8753333 L76.048,96.6112 C76.3709333,96.4329333 76.7368,96.3349333 77.1045333,96.3349333 C77.9174667,96.3349333 78.6314667,96.7941333 79.058,97.5753333 C79.7692,98.8941333 79.1793333,100.114933 78.2273333,100.633867 L78.2273333,100.633867 Z M74.9588,95.2130667 L72.9110667,96.3162667 L76.7601333,103.411467 L78.8022667,102.301733 C81.4837333,100.854133 82.1968,98.9212 80.9228,96.5692 C79.6618667,94.2321333 77.6384,93.7542667 74.9588,95.2130667 L74.9588,95.2130667 Z" id="Fill-36" fill="#A02629"></path>
                <polyline id="Fill-37" fill="#A02629" points="82.46 97.7554667 83.6444 99.4522667 85.3393333 98.2744 84.1605333 96.5748 82.46 97.7554667"></polyline>
                <polyline id="Fill-38" fill="#A02629" points="85.6818667 87.4290667 85.3234667 90.594 87.0949333 90.8357333 87.2414667 89.5169333 91.0905333 93.422 92.5596 91.9716 86.8952 86.2269333 85.6818667 87.4290667"></polyline>
                <path d="M95.5462667,85.9684 C95.2728,86.338 94.7585333,86.4462667 94.4085333,86.1886667 C94.0893333,85.9497333 93.9848,85.6230667 94.0706667,85.0714667 C94.6502667,84.6934667 95.0730667,84.6318667 95.4361333,84.9034667 C95.606,85.0276 95.6993333,85.1834667 95.7292,85.3617333 C95.7581333,85.554 95.6918667,85.7705333 95.5462667,85.9684 L95.5462667,85.9684 Z M92.7770667,83.7937333 C92.4896,83.9757333 92.1890667,84.1306667 91.924,84.1306667 C91.7970667,84.1306667 91.686,84.098 91.5861333,84.0242667 C91.1894667,83.7274667 91.3864,83.2393333 91.5646667,83.0022667 C91.6990667,82.8137333 91.868,82.7232 92.0556,82.7232 C92.1890667,82.7232 92.3402667,82.7754667 92.4830667,82.8790667 C92.7257333,83.0648 92.8321333,83.4838667 92.7770667,83.7937333 L92.7770667,83.7937333 Z M96.6130667,83.2048 C95.9392,82.7101333 95.1850667,82.6289333 94.3478667,82.9528 C94.3609333,82.1604 93.9493333,81.48 93.4574667,81.1132 C92.4532,80.3758667 91.1110667,80.7921333 90.1273333,82.1202667 C89.1529333,83.4362667 89.2416,84.77 90.3616,85.6044 C90.9188,86.0169333 91.6468,86.1112 92.3449333,85.8610667 C92.2954667,86.7412 92.5782667,87.4001333 93.2017333,87.8574667 C93.6553333,88.1925333 94.1257333,88.3624 94.6092,88.3624 C95.4184,88.3624 96.2276,87.8649333 96.8996,86.9670667 C97.4624,86.198 97.7097333,85.4270667 97.6052,84.7345333 C97.5137333,84.1381333 97.1824,83.6304 96.6130667,83.2048 L96.6130667,83.2048 Z" id="Fill-39" fill="#A02629"></path>
                <path d="M100.196133,78.3710667 C100.0692,78.6361333 99.8648,78.7649333 99.5773333,78.7649333 C99.3813333,78.7649333 99.1545333,78.7042667 98.9193333,78.582 C98.5226667,78.386 98.2529333,78.1396 98.1745333,77.8885333 C98.1250667,77.7392 98.14,77.5926667 98.2193333,77.4265333 C98.3406667,77.1857333 98.5366667,77.0681333 98.8269333,77.0681333 C99.0453333,77.0681333 99.2992,77.1362667 99.5614667,77.2669333 C99.9058667,77.4414667 100.155067,77.6813333 100.236267,77.9286667 C100.286667,78.0770667 100.269867,78.2236 100.196133,78.3710667 L100.196133,78.3710667 Z M100.269867,75.3172 C98.8717333,74.6190667 97.5436,75.0362667 96.8716,76.3774667 C96.6821333,76.7573333 96.6046667,77.1232 96.6410667,77.4862667 C96.1408,77.0746667 95.6862667,76.4353333 96.0792,75.6448 C96.2789333,75.2425333 96.5421333,74.9765333 96.8641333,74.6956 L97.1357333,74.4622667 L95.6526667,73.3982667 L95.4856,73.5616 C95.0730667,73.9629333 94.7482667,74.4118667 94.4925333,74.9233333 C94.0949333,75.7269333 94.0174667,76.5034667 94.2704,77.2529333 C94.7034667,78.5577333 96.0334667,79.4481333 97.0648,79.9596 C97.9645333,80.4141333 98.7326667,80.6353333 99.4056,80.6353333 C100.429467,80.6353333 101.198533,80.1257333 101.702533,79.1224 C102.481867,77.5581333 101.958267,76.1712 100.269867,75.3172 L100.269867,75.3172 Z" id="Fill-40" fill="#A02629"></path>
                <path d="M103.124933,67.1757333 C101.514,66.6913333 100.213867,67.4184 99.7574667,68.9724 C99.7117333,69.1161333 99.6790667,69.2486667 99.6622667,69.3644 L98.7177333,69.0638667 L99.5390667,66.2890667 L97.93,65.8158667 L96.5477333,70.4713333 L101.0184,71.8937333 L101.016533,71.5026667 C101.013733,71.0696 101.070667,70.6598667 101.193867,70.2426667 C101.308667,69.8581333 101.7212,68.9052 102.585467,69.1609333 C103.502,69.4381333 103.290133,70.4246667 103.207067,70.7214667 C103.043733,71.2674667 102.7236,71.6594667 102.456667,71.9842667 L102.2,72.2988 L104.0816,72.9194667 L104.1964,72.716 C104.505333,72.1718667 104.7788,71.5418667 104.923467,71.0425333 C105.2072,70.0989333 105.168933,69.2309333 104.818,68.5328 C104.485733,67.8804 103.8884,67.4016 103.124933,67.1757333" id="Fill-41" fill="#A02629"></path>
                <g id="Group-45">
                    <mask id="mask-2" fill="white">
                        <use xlink:href="#path-1"></use>
                    </mask>
                    <g id="Clip-43"></g>
                    <path d="M55.5912,17.1686667 C77.2277333,17.1686667 94.8322667,34.7741333 94.8322667,56.406 C94.8322667,78.0434667 77.2277333,95.6470667 55.5912,95.6470667 C33.9518667,95.6470667 16.3510667,78.0434667 16.3510667,56.406 C16.3510667,34.7741333 33.9518667,17.1686667 55.5912,17.1686667 L55.5912,17.1686667 Z M14.9473333,56.406 C14.9473333,78.8237333 33.1772,97.0582667 55.5912,97.0582667 C78.0052,97.0582667 96.2369333,78.8237333 96.2369333,56.406 C96.2369333,33.9938667 78.0052,15.7612 55.5912,15.7612 C33.1772,15.7612 14.9473333,33.9938667 14.9473333,56.406 L14.9473333,56.406 Z" id="Fill-42" fill="#A02629" mask="url(#mask-2)"></path>
                    <path d="M55.5912,110.5496 C25.7376,110.5496 1.4532,86.2652 1.4532,56.4106667 C1.4532,26.5589333 25.7376,2.26986667 55.5912,2.26986667 C85.4448,2.26986667 109.730133,26.5589333 109.730133,56.4106667 C109.730133,86.2652 85.4448,110.5496 55.5912,110.5496 L55.5912,110.5496 Z M55.5912,0.816666667 C24.9368,0.816666667 0,25.7544 0,56.4106667 C0,87.0576 24.9368,112 55.5912,112 C86.2465333,112 111.1824,87.0576 111.1824,56.4106667 C111.1824,25.7544 86.2465333,0.816666667 55.5912,0.816666667 L55.5912,0.816666667 Z" id="Fill-44" fill="#A02629" mask="url(#mask-2)"></path>
                </g>
            </g>
        </g>
    </g>
</svg>