<svg width="249" height="89" viewBox="0 0 249 89" xmlns="http://www.w3.org/2000/svg" class="mozwebext"><title>whitethenextsystemproject_CMYK_H2 Copy</title><g id="ðŸ‘-UX-Components" fill="none" fill-rule="evenodd"><g id="page_two" transform="translate(-64 -135)" fill="#FFF"><g id="whitethenextsystemproject_CMYK_H2-Copy" transform="translate(64 135)"><g id="Group-10" transform="translate(46.171 72.467)"><path id="Fill-1" d="M.352.535h7.126v1.764H4.962V15.7H2.867V2.299H.352V.535"/><path id="Fill-3" d="M8.38.535h2.095v6.511h2.788V.535h2.096V15.7h-2.096V8.81h-2.788v6.89H8.38V.535"/><path id="Fill-4" d="M16.912.535h5.7v1.764h-3.604v4.747h3.395v1.765h-3.395v5.125h3.604V15.7h-5.7V.535"/><path id="Fill-5" d="M28.53.259l3.082 10.378V.259h2.322V15.7H31.44l-3.196-9.888V15.7h-2.322V.259h2.608"/><path id="Fill-6" d="M36.01 15.7V.26h6.609v2.339h-4.288V6.81h3.133v2.34h-3.133v4.21h4.288v2.34h-6.61"/><path id="Fill-7" d="M52.779 15.7h-2.494l-1.78-4.912-1.797 4.913h-2.492l3.022-7.759-3.022-7.67h2.568l1.72 4.764L50.212.271h2.568l-3.022 7.672 3.022 7.758"/><path id="Fill-8" d="M56.846 2.61h-2.47V.272h7.249v2.34h-2.457V15.7h-2.322V2.61"/><path d="M72.49 11.793c.017 1.06-.258 1.969-.824 2.72-.372.512-.896.872-1.575 1.082-.364.114-.787.17-1.273.17-.897 0-1.64-.222-2.23-.668-.492-.364-.881-.86-1.168-1.488-.286-.627-.454-1.346-.503-2.155l2.182-.159c.096.888.33 1.53.701 1.93.275.3.59.443.946.426.5-.015.9-.263 1.2-.74.153-.236.23-.572.23-1.01 0-.631-.286-1.26-.86-1.884a1252.54 1252.54 0 0 1-2.036-1.934c-.759-.737-1.296-1.396-1.612-1.98a4.598 4.598 0 0 1-.509-2.14c0-1.385.465-2.435 1.394-3.149.573-.43 1.284-.644 2.133-.644.816 0 1.514.182 2.097.546.451.284.816.681 1.096 1.191.278.51.446 1.096.503 1.761l-2.194.4c-.064-.623-.241-1.108-.534-1.457-.21-.25-.513-.377-.908-.377-.42 0-.739.188-.958.56-.177.3-.266.671-.266 1.115 0 .7.299 1.407.897 2.127.226.276.565.6 1.017.972.533.445.885.757 1.055.935.566.568 1.002 1.126 1.309 1.676a6.5 6.5 0 0 1 .351.717c.218.544.33 1.029.34 1.457" id="Fill-19"/><path id="Fill-21" d="M76.443 9.207L73.377.352h2.52l1.697 5.465L79.278.352h2.533l-3.077 8.855v6.377h-2.29V9.207"/><path d="M90.272 11.793c.015 1.06-.26 1.969-.825 2.72-.371.512-.896.872-1.575 1.082-.364.114-.788.17-1.273.17-.896 0-1.64-.222-2.23-.668-.491-.364-.882-.86-1.17-1.488-.286-.627-.453-1.346-.501-2.155l2.18-.159c.097.888.332 1.53.703 1.93.275.3.59.443.946.426.5-.015.9-.263 1.2-.74.153-.236.228-.572.228-1.01 0-.631-.286-1.26-.859-1.884l-2.035-1.934c-.76-.737-1.297-1.396-1.613-1.98a4.585 4.585 0 0 1-.508-2.14c0-1.385.463-2.435 1.393-3.149.574-.43 1.285-.644 2.133-.644.816 0 1.514.182 2.096.546.452.284.819.681 1.097 1.191.28.51.446 1.096.503 1.761l-2.193.4c-.065-.623-.242-1.108-.533-1.457-.211-.25-.514-.377-.91-.377-.42 0-.739.188-.957.56-.177.3-.266.671-.266 1.115 0 .7.298 1.407.896 2.127.226.276.565.6 1.019.972.533.445.884.757 1.054.935.565.568 1 1.126 1.308 1.676.146.26.263.498.35.717.22.544.332 1.029.342 1.457" id="Fill-22"/><path id="Fill-23" d="M93.894 2.672H91.46V.364h7.15v2.308h-2.424v12.912h-2.29V2.672"/><path id="Fill-24" d="M101.006 15.584V.352h6.519V2.66h-4.23v4.153h3.09V9.12h-3.09v4.154h4.23v2.309h-6.52"/><path id="Fill-25" d="M111.838 15.584h-2.29V.352h3.286l2.134 10.94 2.049-10.94h3.157v15.232h-2.29V6.013l-1.987 9.57h-1.842l-2.217-9.547v9.548"/></g><g id="Group-18" transform="translate(169.37 72.467)"><path d="M26.364 12.103c0 1.32.594 2.023 1.465 2.023.891 0 1.488-.702 1.488-2.023V4.035c0-1.51-.51-2.213-1.488-2.213-.956 0-1.465.702-1.465 2.213v8.068zm-2.125-7.897c0-2.15.702-4.045 3.59-4.045 2.739 0 3.61 1.426 3.61 3.81v7.77c0 2.152-.7 4.046-3.61 4.046-2.72 0-3.59-1.427-3.59-3.81v-7.77z" id="Fill-13"/><path d="M36.786 11.167h1.996v1.511c0 .618.086 1.448.808 1.448.785 0 .87-.745.87-1.532V.29h2.125v12.538c0 1.875-.894 2.96-2.995 2.96-1.764 0-2.804-.532-2.804-2.64v-1.98" id="Fill-14"/><path id="Fill-15" d="M48.643.289h5.776v1.789h-3.653v4.81h3.44v1.788h-3.44v5.194h3.653v1.789h-5.776V.289"/><path d="M60.04 4.206c0-2.15.702-4.045 3.59-4.045 2.103 0 3.08 1.064 3.08 2.788v1.535h-1.996V3.419c0-.98-.34-1.597-1.233-1.597-1.104 0-1.315.787-1.315 2.64v7.536c0 1.81.572 2.128 1.251 2.128.786 0 1.297-.553 1.297-1.83v-1.064h1.996v1.702c0 1.618-.66 2.853-3.122 2.853-2.676 0-3.547-1.427-3.547-3.81v-7.77" id="Fill-16"/><path id="Fill-17" d="M71.61.289h7.221v1.789h-2.548v13.58H74.16V2.079h-2.55V.288"/><path d="M14.74 7.187h.553c1.679 0 1.913-.32 1.913-2.62 0-2.279-.129-2.49-1.445-2.49h-1.02v5.11zM12.619.289h3.292c3.1 0 3.42.83 3.42 4.195 0 2.064-.277 2.958-2.02 3.489v.043c1.445.149 1.934.896 1.934 2.342V13.7c0 .554 0 1.32.128 1.959h-1.998c-.212-.384-.254-.766-.254-1.384v-3.468c0-1.45-.254-1.833-1.657-1.833h-.722v6.685h-2.123V.289z" id="Fill-11"/><path d="M2.8 7.187h1.104c1.444 0 1.593-.235 1.593-2.556 0-2.32-.149-2.553-1.593-2.553H2.801v5.109zM.678.289h3.505c2.889 0 3.44.788 3.44 4.342 0 3.556-.551 4.343-3.44 4.343H2.801v6.685H.677V.289z" id="Fill-9"/></g><g id="Group-341"><path d="M6.6 33.504c0 1.482-1.2 2.683-2.678 2.683a2.678 2.678 0 0 1-2.674-2.683 2.678 2.678 0 0 1 2.674-2.682A2.68 2.68 0 0 1 6.6 33.504" id="Fill-26"/><path d="M27.84 14.04a2.676 2.676 0 0 1-3.53 1.367 2.685 2.685 0 0 1-1.366-3.538 2.677 2.677 0 0 1 3.532-1.368c1.35.6 1.96 2.183 1.365 3.538" id="Fill-27"/><path d="M26.857 21.426a2.674 2.674 0 0 1-3.53 1.367 2.684 2.684 0 0 1-1.365-3.536 2.675 2.675 0 0 1 3.53-1.371 2.687 2.687 0 0 1 1.365 3.54" id="Fill-28"/><path d="M41.799 16.51a2.672 2.672 0 0 1-3.779-.186 2.687 2.687 0 0 1 .187-3.79 2.672 2.672 0 0 1 3.78.187 2.687 2.687 0 0 1-.188 3.79" id="Fill-29"/><path d="M43.593 10.057a2.668 2.668 0 0 1-3.78-.186 2.684 2.684 0 0 1 .188-3.789 2.67 2.67 0 0 1 3.78.188 2.684 2.684 0 0 1-.188 3.787" id="Fill-30"/><path d="M49.743 4.879a2.675 2.675 0 0 1-3.782-.188 2.69 2.69 0 0 1 .188-3.79 2.671 2.671 0 0 1 3.78.187 2.691 2.691 0 0 1-.186 3.79" id="Fill-31"/><path d="M50.117 18.611a2.67 2.67 0 0 1-3.779-.188 2.686 2.686 0 0 1 .187-3.787 2.668 2.668 0 0 1 3.78.186 2.687 2.687 0 0 1-.188 3.789" id="Fill-32"/><path d="M62.385 18.496a2.681 2.681 0 0 1 1.709-3.384 2.675 2.675 0 0 1 3.376 1.708 2.685 2.685 0 0 1-1.706 3.388 2.677 2.677 0 0 1-3.38-1.712z" id="Fill-33"/><path d="M70.015 15.042a2.67 2.67 0 0 1-3.376-1.71 2.681 2.681 0 0 1 1.708-3.385 2.672 2.672 0 0 1 3.375 1.71 2.68 2.68 0 0 1-1.707 3.385" id="Fill-34"/><path d="M77.738 12.813a2.675 2.675 0 0 1-3.38-1.71 2.685 2.685 0 0 1 1.709-3.386 2.67 2.67 0 0 1 3.375 1.71 2.683 2.683 0 0 1-1.704 3.386" id="Fill-35"/><path d="M72.511 25.514a2.678 2.678 0 0 1-3.38-1.71 2.687 2.687 0 0 1 1.71-3.385 2.682 2.682 0 0 1 1.671 5.096" id="Fill-36"/><path d="M86.16 33.346a2.677 2.677 0 0 1-2.393-2.938 2.676 2.676 0 0 1 2.931-2.399 2.68 2.68 0 0 1 2.392 2.938 2.67 2.67 0 0 1-2.93 2.4" id="Fill-37"/><path d="M92.142 30.36a2.678 2.678 0 0 1-2.394-2.94 2.675 2.675 0 1 1 5.324.542 2.674 2.674 0 0 1-2.93 2.397" id="Fill-38"/><path d="M100.098 31.467a2.68 2.68 0 0 1-2.393-2.939 2.678 2.678 0 0 1 2.933-2.398 2.684 2.684 0 0 1 2.393 2.94 2.678 2.678 0 0 1-2.933 2.397" id="Fill-39"/><path d="M90.174 40.946a2.686 2.686 0 0 1-2.395-2.94 2.678 2.678 0 0 1 2.934-2.397 2.682 2.682 0 0 1-.539 5.337" id="Fill-40"/><path d="M99.468 53.66A2.69 2.69 0 0 1 98.472 50a2.671 2.671 0 0 1 3.651-.996 2.687 2.687 0 0 1 .997 3.659 2.672 2.672 0 0 1-3.652.999" id="Fill-41"/><path d="M106.144 53.367a2.686 2.686 0 0 1-.996-3.66 2.676 2.676 0 0 1 3.653-.998 2.688 2.688 0 0 1 .995 3.661 2.673 2.673 0 0 1-3.652.997" id="Fill-42"/><path d="M112.964 57.62a2.69 2.69 0 0 1-.995-3.66 2.673 2.673 0 0 1 3.653-.996 2.686 2.686 0 0 1 .996 3.658 2.675 2.675 0 0 1-3.654.999" id="Fill-43"/><path d="M9.396 44.983A2.099 2.099 0 0 1 7.27 47.05a2.1 2.1 0 0 1 .067-4.2 2.1 2.1 0 0 1 2.06 2.133" id="Fill-44"/><path d="M6.671 40.505a2.095 2.095 0 1 1-4.19-.067 2.102 2.102 0 0 1 2.13-2.067 2.093 2.093 0 0 1 2.06 2.134" id="Fill-45"/><path d="M13.504 35.711a2.099 2.099 0 0 1-2.128 2.067 2.097 2.097 0 0 1-2.064-2.135 2.1 2.1 0 0 1 2.13-2.066 2.103 2.103 0 0 1 2.062 2.134" id="Fill-46"/><path d="M15.04 41.338a2.095 2.095 0 1 1-4.189-.065 2.1 2.1 0 0 1 2.13-2.068 2.091 2.091 0 0 1 2.06 2.133" id="Fill-47"/><path d="M24.418 33.178a2.091 2.091 0 0 1-2.78 1.027 2.103 2.103 0 0 1-1.025-2.788 2.096 2.096 0 1 1 3.805 1.76" id="Fill-48"/><path d="M23.736 27.979a2.096 2.096 0 1 1-3.806-1.76 2.09 2.09 0 0 1 2.78-1.026 2.1 2.1 0 0 1 1.026 2.786" id="Fill-49"/><path d="M31.916 26.362a2.094 2.094 0 0 1-2.782 1.028 2.103 2.103 0 0 1-1.025-2.787 2.095 2.095 0 0 1 2.78-1.027 2.103 2.103 0 0 1 1.027 2.786" id="Fill-50"/><path d="M31.054 32.134a2.092 2.092 0 0 1-2.779 1.027 2.103 2.103 0 0 1-1.025-2.787 2.09 2.09 0 0 1 2.78-1.026 2.098 2.098 0 0 1 1.024 2.786" id="Fill-51"/><path d="M36.677 23.935a2.092 2.092 0 0 1-2.958-.194 2.105 2.105 0 0 1 .193-2.964 2.094 2.094 0 0 1 2.958.195c.764.872.677 2.2-.193 2.963" id="Fill-52"/><path d="M42.815 28.471c-.871.767-2.194.68-2.957-.193a2.1 2.1 0 0 1 .193-2.962 2.09 2.09 0 0 1 2.957.192 2.102 2.102 0 0 1-.193 2.963" id="Fill-53"/><path d="M44.297 23.444a2.094 2.094 0 0 1-2.956-.194 2.107 2.107 0 0 1 .192-2.964 2.091 2.091 0 0 1 2.958.193c.764.87.679 2.2-.194 2.965" id="Fill-54"/><path d="M52.427 25.3a2.09 2.09 0 0 1-2.957-.194 2.103 2.103 0 0 1 .194-2.964 2.087 2.087 0 0 1 2.955.193c.764.873.678 2.2-.192 2.965" id="Fill-55"/><path d="M49.302 30.22a2.095 2.095 0 0 1-2.96-.193 2.105 2.105 0 0 1 .195-2.963 2.092 2.092 0 0 1 2.957.192c.764.874.678 2.2-.192 2.964" id="Fill-56"/><path d="M57.763 25.02a2.093 2.093 0 0 1-2.623-1.38 2.098 2.098 0 0 1 1.376-2.63 2.093 2.093 0 0 1 2.624 1.383 2.103 2.103 0 0 1-1.377 2.628" id="Fill-57"/><path d="M61.532 31.667a2.1 2.1 0 0 1-1.245-4.01 2.095 2.095 0 0 1 2.624 1.38 2.102 2.102 0 0 1-1.38 2.63" id="Fill-58"/><path d="M64.924 27.676a2.094 2.094 0 0 1-2.622-1.382 2.095 2.095 0 1 1 4.001-1.248 2.101 2.101 0 0 1-1.38 2.63" id="Fill-59"/><path d="M71.599 32.685a2.096 2.096 0 0 1-2.621-1.383 2.095 2.095 0 1 1 4-1.248 2.105 2.105 0 0 1-1.379 2.631" id="Fill-60"/><path d="M66.748 35.906a2.096 2.096 0 0 1-2.624-1.382 2.103 2.103 0 0 1 1.38-2.63 2.102 2.102 0 0 1 1.243 4.013" id="Fill-61"/><path d="M76.587 34.599a2.094 2.094 0 0 1-1.835-2.328 2.097 2.097 0 0 1 2.326-1.843 2.098 2.098 0 0 1 1.834 2.332 2.092 2.092 0 0 1-2.325 1.839" id="Fill-62"/><path d="M77.337 42.21a2.104 2.104 0 0 1-1.84-2.333 2.099 2.099 0 0 1 2.328-1.84 2.097 2.097 0 0 1 1.836 2.33 2.097 2.097 0 0 1-2.324 1.844" id="Fill-63"/><path d="M82.055 39.945a2.102 2.102 0 0 1-1.837-2.331 2.094 2.094 0 1 1 4.16.49 2.092 2.092 0 0 1-2.323 1.841" id="Fill-64"/><path d="M86.127 47.238a2.095 2.095 0 0 1-1.838-2.33 2.097 2.097 0 0 1 2.324-1.844 2.105 2.105 0 0 1 1.837 2.333 2.095 2.095 0 0 1-2.323 1.841" id="Fill-65"/><path d="M80.382 48.208a2.101 2.101 0 0 1 .491-4.172 2.1 2.1 0 0 1-.49 4.172" id="Fill-66"/><path d="M89.904 51.022a2.101 2.101 0 0 1-.735-2.877 2.097 2.097 0 0 1 2.873-.736 2.102 2.102 0 0 1 .732 2.878 2.091 2.091 0 0 1-2.87.735" id="Fill-67"/><path d="M87.503 58.279a2.103 2.103 0 0 1-.732-2.878 2.094 2.094 0 0 1 2.872-.735 2.105 2.105 0 0 1 .733 2.876 2.093 2.093 0 0 1-2.873.737" id="Fill-68"/><path d="M92.734 58.132a2.099 2.099 0 0 1-.733-2.877 2.09 2.09 0 0 1 2.87-.735 2.103 2.103 0 0 1 .735 2.879 2.091 2.091 0 0 1-2.872.733" id="Fill-69"/><path d="M4.253 56.404a2.1 2.1 0 0 1-1.085 2.763 2.09 2.09 0 0 1-2.756-1.085 2.095 2.095 0 1 1 3.842-1.678" id="Fill-70"/><path d="M11.596 52.144a1.636 1.636 0 0 1-1.684 1.588 1.638 1.638 0 0 1-1.585-1.69 1.634 1.634 0 0 1 1.686-1.588c.901.029 1.61.784 1.583 1.69" id="Fill-71"/><path d="M17.45 51.05a1.64 1.64 0 0 1-1.687 1.587 1.637 1.637 0 0 1-1.584-1.69 1.637 1.637 0 0 1 1.686-1.587 1.638 1.638 0 0 1 1.584 1.69" id="Fill-72"/><path d="M15.375 47.523a1.639 1.639 0 0 1-1.684 1.587 1.637 1.637 0 0 1-1.586-1.69 1.635 1.635 0 1 1 3.27.103" id="Fill-73"/><path d="M20.76 43.86a1.637 1.637 0 0 1-1.684 1.588 1.639 1.639 0 0 1 .101-3.277c.904.027 1.61.784 1.584 1.69" id="Fill-74"/><path d="M21.899 48.27a1.636 1.636 0 1 1-3.271-.1 1.64 1.64 0 0 1 1.686-1.59 1.64 1.64 0 0 1 1.585 1.69" id="Fill-75"/><path d="M23.516 40.64a1.632 1.632 0 0 1-2.181.77 1.641 1.641 0 0 1-.768-2.19 1.631 1.631 0 0 1 2.182-.767c.813.39 1.157 1.37.767 2.187" id="Fill-76"/><path d="M29.311 42.01a1.638 1.638 0 1 1-.77-2.187 1.642 1.642 0 0 1 .77 2.187" id="Fill-77"/><path d="M28.84 37.944a1.637 1.637 0 1 1-2.952-1.418 1.636 1.636 0 1 1 2.951 1.418" id="Fill-78"/><path d="M35.24 36.779a1.632 1.632 0 0 1-2.182.77 1.639 1.639 0 0 1-.767-2.187 1.635 1.635 0 1 1 2.949 1.417" id="Fill-79"/><path d="M34.502 41.273a1.636 1.636 0 1 1-2.95-1.418 1.633 1.633 0 0 1 2.181-.769 1.642 1.642 0 0 1 .769 2.187" id="Fill-80"/><path d="M38.985 34.941a1.634 1.634 0 0 1-2.304-.186 1.64 1.64 0 0 1 .183-2.312 1.633 1.633 0 0 1 2.306.186c.585.69.503 1.724-.185 2.312" id="Fill-81"/><path d="M43.723 38.554a1.633 1.633 0 0 1-2.305-.187 1.64 1.64 0 0 1 .185-2.311 1.63 1.63 0 0 1 2.304.186c.586.69.504 1.725-.184 2.312" id="Fill-82"/><path d="M44.94 34.645a1.637 1.637 0 1 1-2.12-2.497 1.632 1.632 0 0 1 2.304.185c.585.69.502 1.724-.185 2.312" id="Fill-83"/><path d="M51.262 36.188a1.635 1.635 0 0 1-2.307-.184c-.584-.691-.5-1.725.188-2.312a1.632 1.632 0 0 1 2.304.185c.585.691.501 1.723-.185 2.311" id="Fill-84"/><path d="M48.765 39.993a1.633 1.633 0 0 1-2.305-.184 1.642 1.642 0 0 1 .184-2.313 1.634 1.634 0 0 1 2.307.187 1.643 1.643 0 0 1-.186 2.31" id="Fill-85"/><path d="M55.427 36.035a1.636 1.636 0 0 1-2.03-1.111 1.638 1.638 0 0 1 1.106-2.036 1.64 1.64 0 1 1 .924 3.147" id="Fill-86"/><path d="M58.292 41.264a1.634 1.634 0 0 1-2.03-1.11 1.638 1.638 0 0 1 1.107-2.034 1.64 1.64 0 0 1 .923 3.144" id="Fill-87"/><path d="M60.989 38.19a1.637 1.637 0 0 1-2.033-1.11 1.638 1.638 0 0 1 1.109-2.035 1.634 1.634 0 0 1 2.03 1.108 1.641 1.641 0 0 1-1.106 2.037" id="Fill-88"/><path d="M66.137 42.175a1.635 1.635 0 0 1-2.03-1.11 1.646 1.646 0 0 1 1.108-2.037 1.64 1.64 0 0 1 .922 3.147" id="Fill-89"/><path d="M62.316 44.635a1.635 1.635 0 0 1-2.03-1.11 1.634 1.634 0 1 1 3.136-.927 1.64 1.64 0 0 1-1.106 2.037" id="Fill-90"/><path d="M70.011 43.73a1.64 1.64 0 0 1 .428-3.25 1.64 1.64 0 0 1-.428 3.25" id="Fill-91"/><path d="M70.506 49.678a1.642 1.642 0 0 1 .43-3.253 1.642 1.642 0 0 1-.43 3.253" id="Fill-92"/><path d="M74.215 47.963a1.633 1.633 0 0 1-1.404-1.838 1.635 1.635 0 1 1 3.242.43 1.634 1.634 0 0 1-1.838 1.408" id="Fill-93"/><path d="M77.308 53.705a1.638 1.638 0 0 1-1.407-1.84 1.638 1.638 0 0 1 1.837-1.41 1.64 1.64 0 0 1-.43 3.25" id="Fill-94"/><path d="M72.815 54.395a1.64 1.64 0 0 1-1.407-1.842 1.635 1.635 0 1 1 3.242.43 1.636 1.636 0 0 1-1.835 1.412" id="Fill-95"/><path d="M80.212 56.703a1.64 1.64 0 1 1 1.713-2.796 1.645 1.645 0 0 1 .537 2.256 1.635 1.635 0 0 1-2.25.54" id="Fill-96"/><path d="M78.254 62.337a1.641 1.641 0 0 1-.538-2.256 1.634 1.634 0 0 1 2.251-.539 1.64 1.64 0 0 1 .536 2.255 1.632 1.632 0 0 1-2.249.54" id="Fill-97"/><path d="M82.34 62.285a1.64 1.64 0 0 1-.538-2.255 1.63 1.63 0 0 1 2.248-.54 1.641 1.641 0 0 1 .537 2.253 1.628 1.628 0 0 1-2.248.542" id="Fill-98"/><path d="M10.398 64.277a1.642 1.642 0 0 1-.881 2.145 1.634 1.634 0 0 1-2.14-.882 1.645 1.645 0 0 1 .88-2.144 1.638 1.638 0 0 1 2.141.881" id="Fill-99"/><path d="M7.053 61.926a1.636 1.636 0 0 1-3.018 1.264 1.642 1.642 0 0 1 .879-2.145 1.632 1.632 0 0 1 2.139.88" id="Fill-100"/><path d="M10.446 56.36a1.64 1.64 0 0 1-.879 2.145 1.633 1.633 0 0 1-2.138-.881 1.637 1.637 0 0 1 3.017-1.264" id="Fill-101"/><path d="M13.303 59.904a1.64 1.64 0 0 1-.883 2.144 1.629 1.629 0 0 1-2.135-.881 1.638 1.638 0 0 1 .877-2.144 1.634 1.634 0 0 1 2.141.881" id="Fill-102"/><path d="M19.143 56.756a1.272 1.272 0 1 1-2.543-.113 1.271 1.271 0 0 1 1.325-1.218c.703.03 1.25.629 1.218 1.331" id="Fill-103"/><path d="M23.71 55.964a1.273 1.273 0 1 1-2.545-.112 1.277 1.277 0 0 1 1.33-1.22 1.276 1.276 0 0 1 1.215 1.332" id="Fill-104"/><path d="M22.13 53.196a1.273 1.273 0 1 1-2.542-.112 1.274 1.274 0 0 1 1.326-1.22 1.276 1.276 0 0 1 1.216 1.332" id="Fill-105"/><path d="M26.36 50.403a1.274 1.274 0 0 1-2.544-.113 1.273 1.273 0 1 1 2.544.113" id="Fill-106"/><path d="M27.199 53.845a1.273 1.273 0 1 1-2.544-.11 1.272 1.272 0 1 1 2.543.11" id="Fill-107"/><path d="M28.537 47.925a1.274 1.274 0 1 1-2.282-1.134 1.272 1.272 0 0 1 1.706-.578c.633.314.889 1.08.576 1.712" id="Fill-108"/><path d="M33.034 49.049a1.274 1.274 0 1 1-2.284-1.133 1.277 1.277 0 0 1 1.707-.577c.63.314.89 1.078.577 1.71" id="Fill-109"/><path d="M32.704 45.881a1.27 1.27 0 0 1-1.705.576 1.277 1.277 0 0 1-.576-1.71 1.274 1.274 0 0 1 2.281 1.134" id="Fill-110"/><path d="M37.702 45.038a1.274 1.274 0 1 1-2.285-1.133 1.275 1.275 0 1 1 2.285 1.133" id="Fill-111"/><path d="M37.08 48.527a1.273 1.273 0 0 1-2.28-1.132 1.269 1.269 0 0 1 1.704-.577c.629.314.886 1.078.575 1.71" id="Fill-112"/><path d="M40.632 43.644a1.267 1.267 0 0 1-1.79-.166 1.28 1.28 0 0 1 .166-1.798 1.268 1.268 0 0 1 1.791.168c.449.542.375 1.35-.167 1.796" id="Fill-113"/><path d="M44.284 46.505c-.54.45-1.344.375-1.79-.168a1.274 1.274 0 1 1 1.79.168" id="Fill-114"/><path d="M45.27 43.476a1.276 1.276 0 0 1-1.625-1.965 1.27 1.27 0 0 1 1.793.169 1.282 1.282 0 0 1-.168 1.796" id="Fill-115"/><path d="M50.174 44.742a1.27 1.27 0 0 1-1.792-.169 1.275 1.275 0 0 1 .17-1.794 1.266 1.266 0 0 1 1.79.165 1.28 1.28 0 0 1-.168 1.798" id="Fill-116"/><path d="M48.194 47.677a1.273 1.273 0 0 1-1.793-.167 1.278 1.278 0 0 1 .168-1.798 1.27 1.27 0 0 1 1.793.169c.447.54.37 1.346-.168 1.796" id="Fill-117"/><path d="M53.42 44.662a1.274 1.274 0 0 1-1.57-.882c-.19-.68.205-1.384.88-1.574a1.276 1.276 0 0 1 .69 2.456" id="Fill-118"/><path d="M55.596 48.764a1.276 1.276 0 0 1-.687-2.459 1.272 1.272 0 0 1 1.567.884c.191.68-.204 1.385-.88 1.575" id="Fill-119"/><path d="M57.726 46.398a1.275 1.275 0 0 1-.688-2.456 1.276 1.276 0 0 1 .688 2.456" id="Fill-120"/><path d="M61.694 49.551a1.276 1.276 0 0 1-.688-2.457c.677-.19 1.38.206 1.569.884.19.68-.203 1.382-.881 1.573" id="Fill-121"/><path d="M58.692 51.428a1.273 1.273 0 0 1-1.568-.884 1.276 1.276 0 0 1 .88-1.575 1.277 1.277 0 1 1 .688 2.46" id="Fill-122"/><path d="M64.692 50.8a1.272 1.272 0 0 1-1.077-1.445 1.272 1.272 0 1 1 2.519.367c-.1.7-.746 1.183-1.442 1.079" id="Fill-123"/><path d="M65.018 55.434a1.277 1.277 0 0 1 .365-2.525c.696.103 1.178.75 1.078 1.447-.103.699-.751 1.18-1.443 1.078" id="Fill-124"/><path d="M67.921 54.14a1.276 1.276 0 0 1 .369-2.526 1.28 1.28 0 0 1 1.076 1.448 1.275 1.275 0 0 1-1.445 1.079" id="Fill-125"/><path d="M70.267 58.638a1.277 1.277 0 1 1 .369-2.527 1.277 1.277 0 1 1-.369 2.527" id="Fill-126"/><path d="M66.765 59.129a1.275 1.275 0 1 1 .367-2.524 1.275 1.275 0 1 1-.367 2.524" id="Fill-127"/><path d="M72.5 61.001a1.28 1.28 0 0 1-.397-1.76 1.274 1.274 0 0 1 2.151 1.363A1.267 1.267 0 0 1 72.5 61" id="Fill-128"/><path d="M70.92 65.367a1.276 1.276 0 0 1-.398-1.759c.374-.6 1.16-.774 1.756-.397a1.275 1.275 0 0 1-1.359 2.156" id="Fill-129"/><path d="M74.097 65.367a1.274 1.274 0 0 1-.394-1.759 1.274 1.274 0 1 1 .394 1.759" id="Fill-130"/><path d="M14.687 72.026c.505.491.518 1.297.027 1.804a1.265 1.265 0 0 1-1.797.028 1.275 1.275 0 0 1 1.77-1.832" id="Fill-131"/><path d="M17.814 73.68c.508.492.518 1.301.03 1.806a1.273 1.273 0 0 1-1.802.03 1.277 1.277 0 0 1-.027-1.806 1.271 1.271 0 0 1 1.799-.03" id="Fill-132"/><path d="M14.255 68.8a1.275 1.275 0 0 1-.705 1.662 1.276 1.276 0 0 1-.948-2.366 1.266 1.266 0 0 1 1.653.705" id="Fill-133"/><path d="M18.086 66.187a1.274 1.274 0 1 1-1.656-.706 1.271 1.271 0 0 1 1.656.706" id="Fill-134"/><path d="M15.51 64.323a1.273 1.273 0 0 1-2.362.951 1.274 1.274 0 0 1 .707-1.658 1.268 1.268 0 0 1 1.654.707" id="Fill-135"/><path d="M18.206 60.026a1.278 1.278 0 0 1-.705 1.661 1.268 1.268 0 0 1-1.656-.709 1.277 1.277 0 0 1 .704-1.658 1.274 1.274 0 0 1 1.657.706" id="Fill-136"/><path d="M20.391 62.813a1.28 1.28 0 0 1-.704 1.661 1.275 1.275 0 0 1-1.657-.708 1.273 1.273 0 1 1 2.362-.953" id="Fill-137"/><path d="M25.014 60.516a.993.993 0 0 1-1.041.939.99.99 0 0 1-.933-1.044.987.987 0 1 1 1.974.105" id="Fill-138"/><path d="M28.566 59.934a.992.992 0 0 1-1.04.938.99.99 0 0 1 .105-1.98c.545.03.965.498.935 1.042" id="Fill-139"/><path d="M27.359 57.776a.989.989 0 1 1-1.974-.107.987.987 0 1 1 1.974.106" id="Fill-140"/><path d="M30.664 55.636a.987.987 0 1 1-1.974-.106.987.987 0 1 1 1.973.106" id="Fill-141"/><path d="M31.293 58.317a.993.993 0 0 1-1.04.938.992.992 0 0 1 .105-1.981.991.991 0 0 1 .935 1.043" id="Fill-142"/><path d="M32.375 53.728a.99.99 0 1 1-1.765-.897.99.99 0 0 1 1.765.897" id="Fill-143"/><path d="M35.86 54.635a.992.992 0 0 1-1.768-.897.995.995 0 0 1 1.333-.437c.486.247.679.845.434 1.334" id="Fill-144"/><path d="M35.625 52.17a.986.986 0 0 1-1.33.436.991.991 0 1 1 .896-1.77c.487.25.681.845.434 1.334" id="Fill-145"/><path d="M39.511 51.553a.987.987 0 0 1-1.328.437.995.995 0 0 1-.435-1.333.988.988 0 1 1 1.763.896" id="Fill-146"/><path d="M39.004 54.26a.99.99 0 1 1-1.765-.897.99.99 0 0 1 1.765.897" id="Fill-147"/><path d="M41.799 50.493a.987.987 0 0 1-1.39-.142.994.994 0 0 1 .143-1.395.987.987 0 0 1 1.39.143.992.992 0 0 1-.143 1.394" id="Fill-148"/><path d="M44.614 52.742a.99.99 0 1 1 .143-1.397.995.995 0 0 1-.143 1.397" id="Fill-149"/><path d="M45.403 50.395a.986.986 0 0 1-1.391-.141.991.991 0 0 1 .144-1.395.99.99 0 0 1 1.247 1.536" id="Fill-150"/><path d="M49.203 51.415a.99.99 0 1 1-1.248-1.537.985.985 0 0 1 1.39.144.992.992 0 0 1-.142 1.393" id="Fill-151"/><path d="M47.64 53.682a.986.986 0 0 1-1.39-.145.992.992 0 0 1 .143-1.393.988.988 0 0 1 1.392.143.992.992 0 0 1-.145 1.395" id="Fill-152"/><path d="M51.722 51.378a.992.992 0 0 1-.516-1.913.988.988 0 0 1 1.212.698.988.988 0 0 1-.696 1.215" id="Fill-153"/><path d="M53.383 54.58a.988.988 0 0 1-1.212-.699.988.988 0 1 1 1.908-.517.993.993 0 0 1-.696 1.216" id="Fill-154"/><path d="M55.051 52.757a.982.982 0 0 1-1.208-.698.989.989 0 0 1 1.908-.518.992.992 0 0 1-.7 1.216" id="Fill-155"/><path d="M58.114 55.237a.988.988 0 0 1-1.214-.698.993.993 0 0 1 .696-1.217.991.991 0 0 1 .518 1.915" id="Fill-156"/><path d="M55.77 56.67a.989.989 0 0 1-1.215-.698.993.993 0 0 1 .696-1.215.984.984 0 0 1 1.212.697.99.99 0 0 1-.693 1.216" id="Fill-157"/><path d="M60.432 56.232a.99.99 0 0 1-.825-1.133.989.989 0 0 1 1.953.305.993.993 0 0 1-1.128.828" id="Fill-158"/><path d="M60.652 59.832a.994.994 0 0 1-.827-1.134.99.99 0 0 1 1.128-.827.991.991 0 0 1-.3 1.96" id="Fill-159"/><path d="M62.915 58.846a.989.989 0 0 1-.825-1.131.987.987 0 1 1 1.953.304.985.985 0 0 1-1.128.827" id="Fill-160"/><path d="M64.703 62.357a.987.987 0 0 1-.823-1.13.989.989 0 1 1 1.954.304.99.99 0 0 1-1.13.826" id="Fill-161"/><path d="M61.981 62.712a.99.99 0 0 1-.824-1.13.989.989 0 0 1 1.952.304.988.988 0 0 1-1.128.826" id="Fill-162"/><path d="M66.42 64.208a.99.99 0 1 1 1.366-.296.987.987 0 0 1-1.366.296" id="Fill-163"/><path d="M65.16 67.589a.993.993 0 0 1-.293-1.373.986.986 0 0 1 1.365-.292.99.99 0 1 1-1.072 1.665" id="Fill-164"/><path d="M67.629 67.612a.997.997 0 0 1-.293-1.373.987.987 0 0 1 1.364-.294.99.99 0 1 1-1.071 1.668" id="Fill-165"/><path d="M25.369 82.195a.99.99 0 0 1-.7 1.854.989.989 0 0 1-.573-1.276.99.99 0 0 1 1.273-.578" id="Fill-166"/><path d="M21.331 79.822a.992.992 0 0 1 .008 1.4.988.988 0 0 1-1.398.008.992.992 0 0 1-.009-1.4.986.986 0 0 1 1.399-.008" id="Fill-167"/><path d="M23.257 76.77a1 1 0 0 1 .007 1.403.989.989 0 0 1-1.4.008.993.993 0 0 1-.007-1.402.99.99 0 0 1 1.4-.01" id="Fill-168"/><path d="M20.842 76.24a.99.99 0 1 1-1.397.009.983.983 0 0 1 1.397-.008" id="Fill-169"/><path d="M21.442 72.342a.997.997 0 0 1 .008 1.402.987.987 0 0 1-1.4.008.992.992 0 0 1-.009-1.4.994.994 0 0 1 1.4-.01" id="Fill-170"/><path d="M23.856 73.653a.99.99 0 0 1-1.39 1.41.997.997 0 0 1-.009-1.404.99.99 0 0 1 1.399-.006" id="Fill-171"/><path d="M21.132 69.836a.991.991 0 0 1-.563 1.284.989.989 0 1 1 .562-1.284" id="Fill-172"/><path d="M24.123 67.834a.989.989 0 1 1-1.84.722.989.989 0 0 1 1.84-.722" id="Fill-173"/><path d="M22.134 66.366a.988.988 0 1 1-1.839.725.99.99 0 0 1 .56-1.286.984.984 0 0 1 1.279.56" id="Fill-174"/><path d="M24.26 63.05a.99.99 0 0 1-.559 1.283.987.987 0 0 1-1.282-.56.988.988 0 1 1 1.841-.723" id="Fill-175"/><path d="M25.94 65.23a.988.988 0 1 1-1.842.724.99.99 0 0 1 1.841-.724" id="Fill-176"/><path d="M29.644 63.463a.764.764 0 1 1-1.527-.1.765.765 0 1 1 1.527.1" id="Fill-177"/><path d="M32.398 63.05a.764.764 0 1 1-1.527-.102.769.769 0 0 1 .816-.715c.419.029.74.395.711.816" id="Fill-178"/><path d="M31.489 61.365a.766.766 0 1 1-1.529-.098.766.766 0 0 1 1.529.098" id="Fill-179"/><path d="M34.068 59.747a.77.77 0 0 1-.815.714.772.772 0 0 1-.716-.818.77.77 0 0 1 .817-.714.77.77 0 0 1 .714.818" id="Fill-180"/><path d="M34.524 61.824a.767.767 0 0 1-.813.717.768.768 0 0 1 .103-1.53c.42.026.74.392.71.813" id="Fill-181"/><path d="M35.41 58.286a.765.765 0 0 1-1.035.322.771.771 0 0 1-.322-1.035.762.762 0 0 1 1.033-.322.768.768 0 0 1 .324 1.035" id="Fill-182"/><path d="M38.094 59.024a.766.766 0 1 1-1.352-.711.766.766 0 0 1 1.352.711" id="Fill-183"/><path d="M37.94 57.114a.766.766 0 0 1-1.033.325.767.767 0 1 1 .714-1.359.764.764 0 0 1 .32 1.034" id="Fill-184"/><path d="M40.955 56.676a.765.765 0 1 1-1.357-.708.765.765 0 0 1 1.357.708" id="Fill-185"/><path d="M40.535 58.766a.765.765 0 0 1-1.035.322.772.772 0 0 1-.322-1.037.768.768 0 0 1 1.357.715" id="Fill-186"/><path d="M42.735 55.88a.768.768 0 0 1-.95-1.204.767.767 0 0 1 .95 1.204" id="Fill-187"/><path d="M44.891 57.65a.766.766 0 1 1 .126-1.078.774.774 0 0 1-.126 1.079" id="Fill-188"/><path d="M45.524 55.842a.766.766 0 0 1-.95-1.203.761.761 0 0 1 1.074.127.765.765 0 0 1-.124 1.076" id="Fill-189"/><path d="M48.454 56.67a.763.763 0 0 1-1.074-.125.765.765 0 1 1 1.074.125" id="Fill-190"/><path d="M47.224 58.407a.764.764 0 0 1-1.075-.123.764.764 0 0 1 .126-1.078.76.76 0 0 1 1.074.126.767.767 0 0 1-.125 1.075" id="Fill-191"/><path d="M50.404 56.668a.762.762 0 0 1-.929-.552.765.765 0 1 1 1.48-.382.763.763 0 0 1-.55.934" id="Fill-192"/><path d="M51.656 59.162a.766.766 0 1 1-.377-1.484.766.766 0 0 1 .377 1.484" id="Fill-193"/><path d="M52.968 57.77a.764.764 0 0 1-.932-.552.766.766 0 1 1 1.483-.382.77.77 0 0 1-.55.934" id="Fill-194"/><path d="M55.307 59.719a.766.766 0 1 1 .554-.933.766.766 0 0 1-.554.933" id="Fill-195"/><path d="M53.481 60.804a.764.764 0 0 1-.931-.553.763.763 0 1 1 1.48-.378.764.764 0 0 1-.549.931" id="Fill-196"/><path d="M57.093 60.512A.768.768 0 0 1 57.348 59a.765.765 0 0 1 .626.884.764.764 0 0 1-.88.628" id="Fill-197"/><path d="M57.225 63.301a.77.77 0 0 1-.627-.886.766.766 0 1 1 1.51.257.767.767 0 0 1-.883.629" id="Fill-198"/><path d="M58.99 62.563a.765.765 0 0 1-.628-.885c.07-.419.464-.7.88-.628a.765.765 0 0 1 .627.884.762.762 0 0 1-.88.629" id="Fill-199"/><path d="M60.337 65.298a.766.766 0 1 1 .88-.628.765.765 0 0 1-.88.628" id="Fill-200"/><path d="M58.226 65.544a.766.766 0 1 1 .256-1.511.766.766 0 0 1-.256 1.51" id="Fill-201"/><path d="M61.644 66.749a.772.772 0 0 1-.212-1.065.764.764 0 0 1 1.059-.215.771.771 0 0 1 .215 1.064.769.769 0 0 1-1.062.216" id="Fill-202"/><path d="M30.217 82.644a.767.767 0 1 1 0 0" id="Fill-203"/><path d="M28.34 83.003a.766.766 0 1 1-.559 1.427.766.766 0 0 1 .56-1.427" id="Fill-204"/><path d="M27.58 80.049a.77.77 0 0 1 .433.994.765.765 0 1 1-1.422-.56.764.764 0 0 1 .989-.434" id="Fill-205"/><path d="M29.697 80.242c.395.155.589.6.432.993a.76.76 0 0 1-.99.435.768.768 0 0 1-.434-.994.762.762 0 0 1 .992-.434" id="Fill-206"/><path d="M26.596 78.362c.297.3.292.786-.005 1.085a.768.768 0 0 1-1.076-1.093.764.764 0 0 1 1.08.008" id="Fill-207"/><path d="M28.117 76.022a.767.767 0 0 1-1.092 1.077.773.773 0 0 1 .008-1.085.764.764 0 0 1 1.084.008" id="Fill-208"/><path d="M26.255 75.589a.765.765 0 1 1-1.09 1.074.77.77 0 0 1 .008-1.085.76.76 0 0 1 1.082.01" id="Fill-209"/><path d="M26.76 72.58a.766.766 0 0 1-1.092 1.073.767.767 0 0 1 .008-1.082.764.764 0 0 1 1.083.008" id="Fill-210"/><path d="M28.615 73.617a.765.765 0 1 1-1.09 1.074.765.765 0 0 1 1.09-1.074" id="Fill-211"/><path d="M26.544 70.634a.767.767 0 1 1-1.435.542.767.767 0 0 1 1.435-.542" id="Fill-212"/><path d="M28.881 69.115a.772.772 0 0 1-.447.989.764.764 0 0 1-.986-.45.773.773 0 0 1 .447-.988.768.768 0 0 1 .986.45" id="Fill-213"/><path d="M27.356 67.96a.764.764 0 1 1-1.43.538.762.762 0 0 1 .444-.984.761.761 0 0 1 .986.446" id="Fill-214"/><path d="M29.037 65.417a.77.77 0 0 1-.447.988.767.767 0 0 1-.54-1.436.766.766 0 0 1 .987.448" id="Fill-215"/><path d="M30.313 67.12a.764.764 0 0 1-.449.987.767.767 0 0 1-.538-1.434c.396-.15.838.05.987.448" id="Fill-216"/><path d="M33.157 65.814a.593.593 0 1 1-1.181-.091.593.593 0 0 1 1.181.09" id="Fill-217"/><path d="M35.296 65.516a.594.594 0 1 1 0 0" id="Fill-218"/><path d="M34.602 64.204a.595.595 0 0 1-.635.548.594.594 0 0 1-.545-.639.593.593 0 1 1 1.18.091" id="Fill-219"/><path d="M36.614 62.968a.596.596 0 0 1-.638.549.596.596 0 0 1 .092-1.187c.325.027.57.312.546.638" id="Fill-220"/><path d="M36.951 64.584a.594.594 0 1 1 0 0" id="Fill-221"/><path d="M37.663 61.85a.594.594 0 0 1-.802.243.595.595 0 0 1 .562-1.048c.29.157.396.515.24.805" id="Fill-222"/><path d="M39.738 62.442a.592.592 0 0 1-.803.243.596.596 0 0 1-.242-.804.592.592 0 1 1 1.045.561" id="Fill-223"/><path d="M39.635 60.963a.594.594 0 1 1-.243-.806.597.597 0 0 1 .243.806" id="Fill-224"/><path d="M41.971 60.649a.593.593 0 0 1-.801.243.595.595 0 0 1 .563-1.047.594.594 0 0 1 .238.804" id="Fill-225"/><path d="M41.629 62.262a.59.59 0 0 1-.802.244.595.595 0 0 1 .562-1.046.591.591 0 0 1 .24.802" id="Fill-226"/><path d="M43.357 60.047a.59.59 0 0 1-.829-.107.593.593 0 1 1 .935-.727.594.594 0 0 1-.106.834" id="Fill-227"/><path d="M45.012 61.436a.592.592 0 0 1-.83-.109.597.597 0 0 1 .105-.833.59.59 0 0 1 .83.106c.2.261.156.632-.105.836" id="Fill-228"/><path d="M45.52 60.04a.594.594 0 0 1-.728-.941.59.59 0 0 1 .832.107c.2.26.153.633-.103.833" id="Fill-229"/><path d="M47.78 60.704a.59.59 0 0 1-.831-.105.595.595 0 0 1 .938-.728c.2.26.154.63-.106.833" id="Fill-230"/><path d="M46.812 62.039a.59.59 0 0 1-.83-.105.594.594 0 1 1 .83.105" id="Fill-231"/><path d="M49.29 60.718a.59.59 0 0 1-.713-.435.592.592 0 0 1 .433-.72.594.594 0 1 1 .28 1.155" id="Fill-232"/><path d="M50.242 62.656a.592.592 0 1 1-.284-1.15.592.592 0 0 1 .284 1.15" id="Fill-233"/><path d="M51.268 61.593a.596.596 0 0 1-.283-1.156.596.596 0 0 1 .283 1.155" id="Fill-234"/><path d="M53.066 63.12a.593.593 0 0 1-.28-1.153.595.595 0 0 1 .28 1.154" id="Fill-235"/><path d="M51.642 63.947a.595.595 0 0 1-.283-1.156.594.594 0 0 1 .283 1.156" id="Fill-236"/><path d="M54.44 63.748a.593.593 0 1 1 .213-1.166.593.593 0 0 1-.213 1.166" id="Fill-237"/><path d="M54.521 65.91a.595.595 0 0 1-.478-.693.59.59 0 0 1 .688-.475.593.593 0 1 1-.21 1.168" id="Fill-238"/><path d="M55.891 65.352a.591.591 0 0 1-.476-.691.591.591 0 1 1 1.166.21.593.593 0 0 1-.69.48" id="Fill-239"/><path d="M56.917 67.48a.593.593 0 1 1 .209-1.167.593.593 0 0 1-.21 1.167" id="Fill-240"/><path d="M55.279 67.655a.593.593 0 1 1 .69-.48.594.594 0 0 1-.69.48" id="Fill-241"/><path d="M36.974 84.735a.593.593 0 1 1 0 0" id="Fill-242"/><path d="M35.747 85.568a.594.594 0 1 1 .043 1.187.594.594 0 0 1-.043-1.187" id="Fill-243"/><path d="M34.302 83.701a.593.593 0 0 1 .61.575.591.591 0 0 1-.57.614.595.595 0 0 1-.614-.572.6.6 0 0 1 .574-.617" id="Fill-244"/><path d="M35.864 83.188a.594.594 0 1 1 .043 1.186.594.594 0 0 1-.043-1.186" id="Fill-245"/><path d="M33.087 82.806a.594.594 0 0 1-.446 1.102.59.59 0 0 1-.326-.774.59.59 0 0 1 .772-.328" id="Fill-246"/><path d="M33.447 80.676a.591.591 0 1 1-.443 1.097.593.593 0 0 1-.329-.773.593.593 0 0 1 .772-.324" id="Fill-247"/><path d="M31.99 80.938a.594.594 0 1 1-.77.327.593.593 0 0 1 .77-.327" id="Fill-248"/><path d="M31.427 78.645a.598.598 0 0 1 .328.774.594.594 0 1 1-.328-.774" id="Fill-249"/><path d="M33.063 78.81a.59.59 0 0 1 .326.771.587.587 0 0 1-.768.329.593.593 0 0 1 .442-1.1" id="Fill-250"/><path d="M30.677 77.328a.596.596 0 0 1-.855.827.599.599 0 0 1 .017-.841.593.593 0 0 1 .838.014" id="Fill-251"/><path d="M31.874 75.528a.595.595 0 0 1-.017.84.59.59 0 0 1-.837-.014.596.596 0 0 1 .015-.84.592.592 0 0 1 .84.014" id="Fill-252"/><path d="M30.435 75.176a.594.594 0 1 1-.852.825.594.594 0 0 1 .852-.825" id="Fill-253"/><path d="M30.85 72.848a.596.596 0 0 1-.016.841.593.593 0 1 1 .016-.84" id="Fill-254"/><path d="M32.28 73.668a.599.599 0 0 1-.015.842.594.594 0 1 1 .016-.841" id="Fill-255"/><path d="M30.7 71.34a.597.597 0 0 1-.357.765.588.588 0 0 1-.757-.357.593.593 0 1 1 1.113-.408" id="Fill-256"/><path d="M32.52 70.184a.593.593 0 1 1-1.114.41.603.603 0 0 1 .354-.766.596.596 0 0 1 .76.356" id="Fill-257"/><path d="M31.351 69.28a.594.594 0 0 1-.356.76.589.589 0 0 1-.757-.355.592.592 0 1 1 1.113-.406" id="Fill-258"/><path d="M32.67 67.32a.593.593 0 1 1 0 0" id="Fill-259"/><path d="M33.646 68.65a.594.594 0 1 1 0 0" id="Fill-260"/><path d="M35.887 67.712a.457.457 0 1 1-.911-.08.459.459 0 0 1 .494-.417c.25.023.436.245.417.497" id="Fill-261"/><path d="M37.536 67.496a.46.46 0 0 1-.495.417.462.462 0 0 1-.418-.494.458.458 0 1 1 .913.077" id="Fill-262"/><path d="M37.01 66.48a.455.455 0 1 1-.91-.08.46.46 0 0 1 .495-.415c.251.02.437.24.414.495" id="Fill-263"/><path d="M38.57 65.542a.456.456 0 1 1-.91-.077.456.456 0 0 1 .91.077" id="Fill-264"/><path d="M38.82 66.789a.463.463 0 0 1-.496.419.46.46 0 0 1 .078-.916c.254.023.44.245.418.497" id="Fill-265"/><path d="M39.388 64.684a.457.457 0 1 1-.803-.438.457.457 0 0 1 .803.438" id="Fill-266"/><path d="M40.982 65.157a.457.457 0 0 1-.799-.443.454.454 0 0 1 .62-.179c.22.12.3.4.179.622" id="Fill-267"/><path d="M40.912 64.013a.456.456 0 1 1-.8-.439.455.455 0 0 1 .619-.18c.224.12.305.399.181.62" id="Fill-268"/><path d="M42.716 63.787a.458.458 0 0 1-.621.182.454.454 0 0 1-.177-.62.455.455 0 0 1 .798.438" id="Fill-269"/><path d="M42.443 65.03a.459.459 0 1 1-.804-.442.459.459 0 0 1 .804.442" id="Fill-270"/><path d="M43.79 63.333a.46.46 0 0 1-.553-.73.46.46 0 0 1 .553.73" id="Fill-271"/><path d="M45.054 64.412a.453.453 0 0 1-.637-.087.456.456 0 1 1 .724-.556.458.458 0 0 1-.087.643" id="Fill-272"/><path d="M45.456 63.34a.46.46 0 0 1-.643-.087.463.463 0 0 1 .089-.643.458.458 0 1 1 .554.73" id="Fill-273"/><path d="M47.196 63.868a.46.46 0 0 1-.642-.086.46.46 0 0 1 .086-.643.457.457 0 1 1 .555.729" id="Fill-274"/><path d="M46.439 64.892a.457.457 0 1 1-.551-.73.457.457 0 0 1 .55.73" id="Fill-275"/><path d="M48.36 63.888a.456.456 0 0 1-.55-.34.457.457 0 1 1 .889-.211.456.456 0 0 1-.339.55" id="Fill-276"/><path d="M49.082 65.393a.458.458 0 0 1-.213-.893.456.456 0 0 1 .55.341.458.458 0 0 1-.337.552" id="Fill-277"/><path d="M49.879 64.574a.456.456 0 0 1-.55-.339.456.456 0 0 1 .34-.552.46.46 0 0 1 .55.34.46.46 0 0 1-.34.551" id="Fill-278"/><path d="M51.255 65.764a.452.452 0 0 1-.548-.338.456.456 0 0 1 .34-.553.458.458 0 0 1 .209.89" id="Fill-279"/><path d="M50.15 66.394a.458.458 0 0 1-.21-.893.458.458 0 0 1 .21.893" id="Fill-280"/><path d="M52.311 66.26a.458.458 0 0 1 .17-.9.458.458 0 0 1-.17.9" id="Fill-281"/><path d="M53.42 67.504a.456.456 0 0 1-.364-.535.456.456 0 1 1 .897.17.456.456 0 0 1-.532.365" id="Fill-282"/><path d="M39.103 83.945a.456.456 0 0 1 .466.448.455.455 0 1 1-.91.022.455.455 0 0 1 .444-.47" id="Fill-283"/><path d="M38.705 82.324a.462.462 0 0 1 .47.447.46.46 0 0 1-.447.471.46.46 0 0 1-.023-.918" id="Fill-284"/><path d="M37.757 82.96a.458.458 0 0 1 .023.917.456.456 0 0 1-.468-.446.455.455 0 0 1 .445-.47" id="Fill-285"/><path d="M36.651 81.513a.456.456 0 0 1 .468.447.457.457 0 1 1-.468-.447" id="Fill-286"/><path d="M37.86 81.124a.462.462 0 0 1 .471.448.458.458 0 1 1-.47-.448" id="Fill-287"/><path d="M35.72 80.812a.458.458 0 0 1-.35.849.46.46 0 0 1 .35-.849" id="Fill-288"/><path d="M36.011 79.172a.455.455 0 0 1 .248.598.457.457 0 1 1-.248-.598" id="Fill-289"/><path d="M34.887 79.367a.457.457 0 1 1 0 0" id="Fill-290"/><path d="M34.468 77.592a.461.461 0 0 1 .247.6.457.457 0 1 1-.844-.35.458.458 0 0 1 .597-.25" id="Fill-291"/><path d="M35.728 77.731a.46.46 0 0 1 .248.6.456.456 0 1 1-.843-.353.455.455 0 0 1 .595-.247" id="Fill-292"/><path d="M33.9 76.574a.46.46 0 0 1-.02.647.457.457 0 1 1 .018-.647" id="Fill-293"/><path d="M34.833 75.192a.466.466 0 0 1-.018.652.459.459 0 1 1 .018-.652" id="Fill-294"/><path d="M33.726 74.913a.455.455 0 0 1-.018.648.455.455 0 0 1-.645-.018.456.456 0 1 1 .663-.63" id="Fill-295"/><path d="M34.062 73.122a.457.457 0 0 1-.02.646.452.452 0 0 1-.644-.017.453.453 0 0 1 .017-.643.455.455 0 0 1 .647.014" id="Fill-296"/><path d="M35.158 73.762a.459.459 0 1 1-.665.631.459.459 0 0 1 .665-.631" id="Fill-297"/><path d="M33.954 71.96c.084.24-.042.5-.28.584a.453.453 0 0 1-.58-.277.455.455 0 0 1 .277-.586c.237-.086.5.039.583.279" id="Fill-298"/><path d="M35.368 71.079a.465.465 0 0 1-.279.585.457.457 0 0 1-.583-.278.462.462 0 0 1 .276-.587c.24-.084.5.04.586.28" id="Fill-299"/><path d="M34.47 70.374a.46.46 0 0 1-.28.583.459.459 0 0 1-.305-.865.457.457 0 0 1 .585.282" id="Fill-300"/><path d="M35.501 68.87a.457.457 0 1 1-.862.307.459.459 0 0 1 .862-.307" id="Fill-301"/><path d="M36.242 69.902c.085.24-.038.5-.28.584a.458.458 0 0 1-.304-.863.455.455 0 0 1 .584.279" id="Fill-302"/><path d="M38.004 69.215a.35.35 0 1 1-.699-.068.35.35 0 1 1 .699.068" id="Fill-303"/><path d="M39.273 69.058a.352.352 0 0 1-.7-.064.352.352 0 0 1 .7.065" id="Fill-304"/><path d="M38.876 68.276a.353.353 0 0 1-.383.317.353.353 0 1 1 .384-.317" id="Fill-305"/><path d="M40.078 67.566a.351.351 0 1 1-.317-.385c.196.02.334.192.317.385" id="Fill-306"/><path d="M40.261 68.525a.347.347 0 0 1-.38.316.351.351 0 0 1 .065-.7c.193.018.334.19.315.384" id="Fill-307"/><path d="M40.711 66.912a.346.346 0 0 1-.476.134.356.356 0 0 1-.139-.479.357.357 0 0 1 .484-.132.35.35 0 0 1 .131.477" id="Fill-308"/><path d="M41.934 67.284a.347.347 0 0 1-.476.135.348.348 0 0 1-.136-.477.35.35 0 1 1 .612.342" id="Fill-309"/><path d="M41.888 66.408a.354.354 0 0 1-.48.135.353.353 0 0 1 .346-.614c.167.094.23.31.134.479" id="Fill-310"/><path d="M43.275 66.245a.349.349 0 0 1-.477.136.349.349 0 0 1-.134-.478.346.346 0 0 1 .476-.137c.17.095.229.309.135.48" id="Fill-311"/><path d="M43.056 67.195a.35.35 0 0 1-.476.138.352.352 0 0 1-.137-.478.348.348 0 0 1 .477-.136c.171.094.23.308.136.476" id="Fill-312"/><path d="M44.1 65.903a.35.35 0 0 1-.49-.072.353.353 0 0 1 .07-.492.351.351 0 1 1 .42.564" id="Fill-313"/><path d="M45.067 66.74a.352.352 0 1 1-.421-.563.349.349 0 0 1 .49.072.35.35 0 0 1-.069.49" id="Fill-314"/><path d="M45.379 65.92a.345.345 0 0 1-.488-.072.35.35 0 0 1 .069-.493.352.352 0 0 1 .42.565" id="Fill-315"/><path d="M46.714 66.337a.35.35 0 0 1-.49-.074.35.35 0 0 1 .07-.49.352.352 0 0 1 .42.565" id="Fill-316"/><path d="M46.127 67.117a.346.346 0 0 1-.489-.07.35.35 0 1 1 .56-.421.353.353 0 0 1-.071.49" id="Fill-317"/><path d="M47.607 66.359a.344.344 0 0 1-.417-.264.349.349 0 0 1 .262-.422.353.353 0 0 1 .422.266.354.354 0 0 1-.267.42" id="Fill-318"/><path d="M48.15 67.52a.352.352 0 0 1-.155-.687.348.348 0 0 1 .42.264.35.35 0 0 1-.264.422" id="Fill-319"/><path d="M48.772 66.897a.353.353 0 0 1-.156-.687.352.352 0 0 1 .156.687" id="Fill-320"/><path d="M49.82 67.82a.352.352 0 1 1 .265-.42.352.352 0 0 1-.266.42" id="Fill-321"/><path d="M40.074 80.456a.349.349 0 0 1 .356.346.35.35 0 0 1-.344.357.352.352 0 0 1-.012-.703" id="Fill-322"/><path d="M39.34 80.938a.35.35 0 0 1 .358.346.349.349 0 0 1-.343.357.353.353 0 0 1-.36-.346.352.352 0 0 1 .345-.357" id="Fill-323"/><path d="M38.504 79.819a.353.353 0 0 1 .012.704.352.352 0 1 1-.012-.704" id="Fill-324"/><path d="M39.434 79.528a.354.354 0 0 1 .357.348.346.346 0 0 1-.344.355.353.353 0 0 1-.36-.345c0-.191.153-.354.347-.358" id="Fill-325"/><path d="M37.79 79.276a.352.352 0 1 1-.27.649.352.352 0 0 1 .27-.65" id="Fill-326"/><path d="M38.026 78.017a.351.351 0 0 1-.273.647.353.353 0 0 1-.187-.461.353.353 0 0 1 .46-.186" id="Fill-327"/><path d="M37.163 78.158c.178.077.26.282.187.46a.353.353 0 0 1-.462.188.352.352 0 1 1 .275-.648" id="Fill-328"/><path d="M36.85 76.794a.351.351 0 1 1-.273.649.351.351 0 0 1 .273-.649" id="Fill-329"/><path d="M37.819 76.909a.348.348 0 0 1 .185.46.347.347 0 0 1-.46.186.35.35 0 0 1-.186-.46.352.352 0 0 1 .46-.186" id="Fill-330"/><path d="M36.419 76.008a.354.354 0 0 1-.015.497.352.352 0 0 1-.48-.514.348.348 0 0 1 .495.017" id="Fill-331"/><path d="M37.148 74.956a.351.351 0 1 1-.516.477.351.351 0 0 1 .516-.477" id="Fill-332"/><path d="M36.299 74.732a.35.35 0 0 1-.019.495.35.35 0 1 1-.479-.51.35.35 0 0 1 .498.015" id="Fill-333"/><path d="M36.567 73.357a.353.353 0 0 1-.02.499.347.347 0 0 1-.494-.02.347.347 0 0 1 .018-.493.35.35 0 0 1 .496.014" id="Fill-334"/><path d="M37.403 73.857a.35.35 0 0 1-.016.498.35.35 0 0 1-.495-.017.356.356 0 0 1 .017-.5.351.351 0 0 1 .494.02" id="Fill-335"/><path d="M36.492 72.465a.352.352 0 0 1-.219.446.35.35 0 0 1-.444-.216.35.35 0 0 1 .218-.447.345.345 0 0 1 .445.217" id="Fill-336"/><path d="M37.582 71.796a.356.356 0 0 1-.217.45.353.353 0 0 1-.229-.667.353.353 0 0 1 .446.217" id="Fill-337"/><path d="M36.898 71.248a.353.353 0 0 1-.216.448.353.353 0 0 1-.228-.666.35.35 0 0 1 .444.218" id="Fill-338"/><path d="M37.702 70.102a.352.352 0 1 1-.666.23.352.352 0 0 1 .666-.23" id="Fill-339"/><path d="M38.263 70.9a.35.35 0 0 1-.217.445.349.349 0 0 1-.447-.216.356.356 0 0 1 .22-.447.346.346 0 0 1 .444.218" id="Fill-340"/></g></g></g></g></svg>