<?xml version="1.0" encoding="utf-8"?>
<!-- Generator: Adobe Illustrator 16.0.0, SVG Export Plug-In . SVG Version: 6.00 Build 0)  -->
<!DOCTYPE svg PUBLIC "-//W3C//DTD SVG 1.1//EN" "http://www.w3.org/Graphics/SVG/1.1/DTD/svg11.dtd">
<svg version="1.1" id="Layer_1" xmlns="http://www.w3.org/2000/svg" xmlns:xlink="http://www.w3.org/1999/xlink" x="0px" y="0px"
	 width="42.379px" height="52.038px" viewBox="0 0 42.379 52.038" enable-background="new 0 0 42.379 52.038" xml:space="preserve">
<path fill="#FFFFFF" d="M23.88,3.942C25.759,1.743,28.927,0.106,31.544,0c0.336,3.047-0.888,6.104-2.707,8.307
	c-1.817,2.197-4.799,3.908-7.716,3.684C20.723,9.003,22.197,5.89,23.88,3.942z M38.786,45.546c-2.165,3.171-4.409,6.332-7.954,6.398
	c-3.484,0.071-4.609-2.057-8.592-2.052c-3.981,0.005-5.224,2.008-8.519,2.142c-3.424,0.132-6.033-3.419-8.223-6.573
	C1.019,39.008-2.411,27.22,2.164,19.25c2.273-3.956,6.339-6.465,10.758-6.534c3.357-0.069,6.535,2.252,8.588,2.248
	c2.054-0.002,5.903-2.805,9.957-2.398c1.696,0.071,6.457,0.679,9.522,5.146c-0.244,0.153-5.68,3.325-5.609,9.912
	c0.081,7.871,6.92,10.48,6.998,10.517C42.317,38.323,41.291,41.875,38.786,45.546z"/>
</svg>
