<svg width="51.68mm" height="55.317mm" version="1.1" viewBox="0 0 183.12 196.01" xmlns="http://www.w3.org/2000/svg">
 <title>Time Attendance</title>
 <g transform="translate(31.641 -417)">
  <g fill="#acacac">
   <path d="m-21.018 440.72c-5.8856 0-10.623 4.7375-10.623 10.623v141.81c0 5.8857 4.7375 10.626 10.623 10.626h142.65c5.8856 0 10.623-4.7401 10.623-10.626v-141.81c0-5.8856-4.7375-10.623-10.623-10.623h-10.459v12.249c0 5.0164-5.3282 9.0546-11.945 9.0546-6.6163 0-11.942-4.0383-11.942-9.0546v-12.249h-68.473v12.249c0 5.0164-5.3256 9.0546-11.942 9.0546-6.6163 0-11.942-4.0383-11.942-9.0546v-12.249zm3.639 32.137h134.95c2.7299 0 4.9292 2.1993 4.9292 4.9292v111.69c0 2.7299-2.1993 4.9266-4.9292 4.9266h-134.95c-2.7299 0-4.9266-2.1967-4.9266-4.9266v-111.69c0-2.7299 2.1967-4.9292 4.9266-4.9292z" stroke-width="0"/>
   <g stroke-linecap="round" stroke-linejoin="bevel" stroke-width=".70182">
    <path d="m57.445 477.09h16.633c3.4466 0 6.2211 2.7746 6.2211 6.2211v12.106c0 3.4465-2.7745 6.2212-6.2211 6.2212h-16.633c-3.4465 0-6.2211-2.7746-6.2211-6.2212v-12.106c0-3.4465 2.7747-6.2211 6.2211-6.2211z"/>
    <path d="m91.456 477.09h16.633c3.4465 0 6.2212 2.7746 6.2212 6.2211v12.106c0 3.4465-2.7747 6.2212-6.2212 6.2212h-16.633c-3.4465 0-6.2211-2.7746-6.2211-6.2212v-12.106c0-3.4465 2.7747-6.2211 6.2211-6.2211z"/>
    <path d="m23.61 506.57h16.633c3.4465 0 6.2211 2.7746 6.2211 6.2212v12.106c0 3.4465-2.7747 6.2212-6.2211 6.2212h-16.633c-3.4465 0-6.2211-2.7746-6.2211-6.2212v-12.106c0-3.4465 2.7747-6.2212 6.2211-6.2212z"/>
    <path d="m57.621 506.57h16.633c3.4465 0 6.2211 2.7746 6.2211 6.2212v12.106c0 3.4465-2.7747 6.2212-6.2211 6.2212h-16.633c-3.4466 0-6.2211-2.7746-6.2211-6.2212v-12.106c0-3.4465 2.7745-6.2212 6.2211-6.2212z"/>
    <path d="m91.631 506.57h16.633c3.4466 0 6.2213 2.7746 6.2213 6.2212v12.106c0 3.4465-2.7747 6.2212-6.2213 6.2212h-16.633c-3.4466 0-6.2213-2.7746-6.2213-6.2212v-12.106c0-3.4465 2.7747-6.2212 6.2213-6.2212z"/>
    <path d="m-10.4 506.57h16.633c3.4465 0 6.2211 2.7746 6.2211 6.2212v12.106c0 3.4465-2.7747 6.2212-6.2211 6.2212h-16.633c-3.4466 0-6.2211-2.7746-6.2211-6.2212v-12.106c0-3.4465 2.7745-6.2212 6.2211-6.2212z"/>
    <path d="m23.61 536.06h16.633c3.4465 0 6.2211 2.7746 6.2211 6.2212v12.106c0 3.4465-2.7747 6.2212-6.2211 6.2212h-16.633c-3.4465 0-6.2211-2.7746-6.2211-6.2212v-12.106c0-3.4465 2.7747-6.2212 6.2211-6.2212z"/>
    <path d="m57.621 536.06h16.633c3.4465 0 6.2211 2.7746 6.2211 6.2212v12.106c0 3.4465-2.7747 6.2212-6.2211 6.2212h-16.633c-3.4466 0-6.2211-2.7746-6.2211-6.2212v-12.106c0-3.4465 2.7745-6.2212 6.2211-6.2212z"/>
    <path d="m91.631 536.06h16.633c3.4466 0 6.2213 2.7746 6.2213 6.2212v12.106c0 3.4465-2.7747 6.2212-6.2213 6.2212h-16.633c-3.4466 0-6.2213-2.7746-6.2213-6.2212v-12.106c0-3.4465 2.7747-6.2212 6.2213-6.2212z"/>
    <path d="m-10.4 536.06h16.633c3.4465 0 6.2211 2.7746 6.2211 6.2212v12.106c0 3.4465-2.7747 6.2212-6.2211 6.2212h-16.633c-3.4466 0-6.2211-2.7746-6.2211-6.2212v-12.106c0-3.4465 2.7745-6.2212 6.2211-6.2212z"/>
    <path d="m23.61 565.54h16.633c3.4465 0 6.2211 2.7746 6.2211 6.2212v12.106c0 3.4465-2.7747 6.2212-6.2211 6.2212h-16.633c-3.4465 0-6.2211-2.7746-6.2211-6.2212v-12.106c0-3.4465 2.7747-6.2212 6.2211-6.2212z"/>
    <path d="m57.621 565.54h16.633c3.4465 0 6.2211 2.7746 6.2211 6.2212v12.106c0 3.4465-2.7747 6.2212-6.2211 6.2212h-16.633c-3.4466 0-6.2211-2.7746-6.2211-6.2212v-12.106c0-3.4465 2.7745-6.2212 6.2211-6.2212z"/>
    <path d="m91.631 565.54h16.633c3.4466 0 6.2213 2.7746 6.2213 6.2212v12.106c0 3.4465-2.7747 6.2212-6.2213 6.2212h-16.633c-3.4466 0-6.2213-2.7746-6.2213-6.2212v-12.106c0-3.4465 2.7747-6.2212 6.2213-6.2212z"/>
    <path d="m-10.4 565.54h16.633c3.4465 0 6.2211 2.7746 6.2211 6.2212v12.106c0 3.4465-2.7747 6.2212-6.2211 6.2212h-16.633c-3.4466 0-6.2211-2.7746-6.2211-6.2212v-12.106c0-3.4465 2.7745-6.2212 6.2211-6.2212z"/>
    <path d="m23.435 477.09h16.633c3.4465 0 6.2211 2.7746 6.2211 6.2211v12.106c0 3.4465-2.7747 6.2212-6.2211 6.2212h-16.633c-3.4466 0-6.2211-2.7746-6.2211-6.2212v-12.106c0-3.4465 2.7745-6.2211 6.2211-6.2211z"/>
    <path d="m-10.575 477.09h16.633c3.4466 0 6.2211 2.7746 6.2211 6.2211v12.106c0 3.4465-2.7745 6.2212-6.2211 6.2212h-16.633c-3.4465 0-6.2211-2.7746-6.2211-6.2212v-12.106c0-3.4465 2.7747-6.2211 6.2211-6.2211z"/>
   </g>
  </g>
  <g transform="matrix(1.2541 0 0 1.2541 -106.18 -203.11)" stroke="#acacac">
   <path d="m201.79 609.08a38.022 38.022 0 0 1-38.022 38.022 38.022 38.022 0 0 1-38.022-38.022 38.022 38.022 0 0 1 38.022-38.022 38.022 38.022 0 0 1 38.022 38.022z" fill="#fdffff" stroke-width="7.3172"/>
   <path d="m162.86 588.6-0.11398 21.951 18.325 8.178" fill="none" stroke-linecap="round" stroke-width="9.707"/>
  </g>
  <path d="m6.8746 419.77c6.6163 0 11.943 4.0385 11.943 9.0548v24.146c0 5.0164-5.3265 9.0548-11.943 9.0548-6.6163 0-11.943-4.0384-11.943-9.0548v-24.146c0-5.0164 5.3265-9.0548 11.943-9.0548z" fill="#acacac" stroke="#fff" stroke-linecap="round" stroke-linejoin="bevel" stroke-width="5.5462"/>
  <path d="m99.232 419.77c6.6163 0 11.943 4.0385 11.943 9.0548v24.146c0 5.0164-5.3265 9.0548-11.943 9.0548-6.6163 0-11.943-4.0384-11.943-9.0548v-24.146c0-5.0164 5.3265-9.0548 11.943-9.0548z" fill="#acacac" stroke="#fff" stroke-linecap="round" stroke-linejoin="bevel" stroke-width="5.5462"/>
 </g>
</svg>
