<svg width="194.84" height="147.47" version="1.1" viewBox="0 0 194.84 147.47" xmlns="http://www.w3.org/2000/svg">
 <g transform="translate(-293.7 -392.82)">
  <path d="m450.85 392.83c-14.398-0.0462-34.334 0.074-61.153 0.14341l-86.454 0.14341c-0.0491-1e-3 -0.0962 0-0.14437 0-5.1383-1e-3 -9.3966 4.1131-9.3966 9.2523 0 0.0694-7.6e-4 0.0972 0 0.14341l0.28912 64.623 0.28913 63.318c-0.0144 0.1943 0 0.38398 0 0.57828 0 5.1383 4.1142 9.2523 9.2523 9.2523h87.031c52.368 0 76.091 0.0879 87.027-0.57828 1.2075-0.0926 2.3674-0.38859 3.4696-0.57825 3.3827-1.0515 5.8539-3.9281 6.361-7.5175 0.12119-0.46724 0.13606-0.89561 0.14437-1.3009 0.22114-10.547 0.53835-35.283 0.72283-63.323 0.25676-38.844 0.46831-56.583-0.14437-64.766 0.0851-4.9713-4.2177-9.0062-9.2523-8.9632-4.8542-0.18043-13.648-0.40248-28.046-0.43487zm-130.55 15.035h71.271c39.212 0 71.294 0.35622 71.271 0.72307-0.0232 0.3701-15.091 15.957-33.395 34.551-29.115 29.579-33.692 33.753-36.431 34.118-1.722 0.22668-3.8852 0.0648-4.9153-0.57827-1.5675-0.94744-55-54.991-64.766-65.488l-3.0359-3.3253zm-11.276 11.277 23.275 23.275c12.792 12.786 23.275 23.455 23.275 23.709 0 0.25444-10.509 11.11-23.275 24.143l-23.275 23.709v-47.418zm163.22 2.1683 0.57826 8.2406c0.31366 4.5582 0.66681 25.329 0.72285 46.117 0.0537 20.788-0.20911 37.805-0.57828 37.732-0.36917-0.074-11.025-10.556-23.565-23.276l-22.697-23.131 22.697-22.842 22.842-22.842zm-105.68 55.514 6.7949 6.6501c7.4847 7.2668 11.08 8.8836 18.794 8.8184 6.6806-0.0694 12.004-2.4907 18.939-8.9627l5.6384-5.3492 23.131 23.564 23.131 23.565h-143.7l7.6618-7.8066c4.1682-4.3051 14.725-15.178 23.565-24.143l16.047-16.336z" fill="#fbfcfb" stroke-width="0"/>
 </g>
</svg>
