<?xml version="1.0" encoding="utf-8"?>
<!-- Generator: Adobe Illustrator 16.0.0, SVG Export Plug-In . SVG Version: 6.00 Build 0)  -->
<!DOCTYPE svg PUBLIC "-//W3C//DTD SVG 1.1//EN" "http://www.w3.org/Graphics/SVG/1.1/DTD/svg11.dtd">
<svg version="1.1" id="Layer_1" xmlns="http://www.w3.org/2000/svg" xmlns:xlink="http://www.w3.org/1999/xlink" x="0px" y="0px"
	 width="42.43px" height="33.004px" viewBox="0 2.058 42.43 33.004" enable-background="new 0 2.058 42.43 33.004"
	 xml:space="preserve">
<polygon fill="#ED313D" points="28.288,35.062 28.288,30.345 33,30.345 33,25.633 37.715,25.633 37.715,20.916 42.429,20.916 
	42.429,6.774 37.715,6.774 37.715,2.058 28.288,2.058 28.288,6.774 23.571,6.774 23.571,11.488 18.858,11.488 18.858,6.774 
	14.144,6.774 14.144,2.058 4.715,2.058 4.715,6.774 0,6.774 0,20.916 4.715,20.916 4.715,25.633 9.429,25.633 9.429,30.345 
	14.144,30.345 14.144,35.062 "/>
</svg>
