<?xml version="1.0" encoding="utf-8"?>
<!-- Generator: Adobe Illustrator 16.0.0, SVG Export Plug-In . SVG Version: 6.00 Build 0)  -->
<!DOCTYPE svg PUBLIC "-//W3C//DTD SVG 1.1//EN" "http://www.w3.org/Graphics/SVG/1.1/DTD/svg11.dtd">
<svg version="1.1" id="Layer_1" xmlns="http://www.w3.org/2000/svg" xmlns:xlink="http://www.w3.org/1999/xlink" x="0px" y="0px"
	 width="17.023px" height="13.241px" viewBox="0 0 17.023 13.241" enable-background="new 0 0 17.023 13.241" xml:space="preserve">
<polygon fill="#ED313D" points="11.349,13.241 11.349,11.349 13.24,11.349 13.24,9.458 15.132,9.458 15.132,7.566 17.023,7.566 
	17.023,1.892 15.132,1.892 15.132,0 11.349,0 11.349,1.892 9.457,1.892 9.457,3.783 7.566,3.783 7.566,1.892 5.675,1.892 5.675,0 
	1.891,0 1.891,1.892 0,1.892 0,7.566 1.891,7.566 1.891,9.458 3.783,9.458 3.783,11.349 5.675,11.349 5.675,13.241 "/>
</svg>
