<?xml version="1.0" encoding="utf-8"?>
<!-- Generator: Adobe Illustrator 16.0.0, SVG Export Plug-In . SVG Version: 6.00 Build 0)  -->
<!DOCTYPE svg PUBLIC "-//W3C//DTD SVG 1.1//EN" "http://www.w3.org/Graphics/SVG/1.1/DTD/svg11.dtd">
<svg version="1.1" id="Layer_1" xmlns="http://www.w3.org/2000/svg" xmlns:xlink="http://www.w3.org/1999/xlink" x="0px" y="0px"
	 width="244.956px" height="72.445px" viewBox="0 0 244.956 72.445" enable-background="new 0 0 244.956 72.445"
	 xml:space="preserve">
<g>
	<g>
		<path fill="#FFDD00" d="M112.893,2.432h8.489v14.364h16.488V2.432h8.487v38.52h-8.487V24.303h-16.488v16.649h-8.489V2.432z"/>
		<path fill="#FFDD00" d="M154.076,2.432h8.492v38.52h-8.492V2.432z"/>
		<path fill="#FFDD00" d="M166.483,2.432h9.685l9.52,25.245h0.11l9.687-25.245h9.088l-15.891,38.52h-6.799L166.483,2.432z"/>
		<path fill="#FFDD00" d="M208.917,2.432h26.173v7.834h-17.683v7.183h16.703v7.837h-16.703v7.833h18.663v7.833h-27.153V2.432z"/>
	</g>
	<g>
		<path fill="#FFDD00" d="M125.054,67.396c-1.344,1.611-3.103,2.381-5.067,2.381c-4.232,0-7.244-3.041-7.244-7.241
			c0-4.204,3.012-7.246,7.244-7.246c1.997,0,3.786,0.866,5.127,2.386l-1.43,1.071c-1.046-1.132-2.266-1.847-3.697-1.847
			c-3.37,0-5.456,2.532-5.456,5.636c0,3.098,2.086,5.636,5.456,5.636c1.49,0,2.77-0.777,3.697-1.911L125.054,67.396z"/>
		<path fill="#FFDD00" d="M134.324,55.291c4.23,0,7.244,3.042,7.244,7.246c0,4.2-3.014,7.241-7.244,7.241
			c-4.233,0-7.245-3.041-7.245-7.241C127.079,58.333,130.09,55.291,134.324,55.291z M134.324,68.173c3.37,0,5.457-2.538,5.457-5.636
			c0-3.104-2.087-5.636-5.457-5.636c-3.369,0-5.456,2.532-5.456,5.636C128.868,65.635,130.955,68.173,134.324,68.173z"/>
		<path fill="#FFDD00" d="M145.56,46.883h1.786v11.182h0.061c0.718-1.521,2.476-2.775,4.71-2.775c4.294,0,5.247,2.922,5.247,5.931
			v8.201h-1.787v-8.106c0-2.236-0.627-4.415-3.46-4.415c-2.651,0-4.771,1.847-4.771,5.636v6.886h-1.786V46.883z"/>
		<path fill="#FFDD00" d="M172.836,63.636c0,2.684,0.059,4.206,0.267,5.787h-1.67c-0.116-0.686-0.179-1.462-0.179-2.237h-0.06
			c-1.013,1.76-2.505,2.592-4.828,2.592c-2.354,0-4.86-1.161-4.86-4.084c0-4.201,4.92-4.62,7.633-4.62h2.086v-0.834
			c0-2.386-1.669-3.338-3.876-3.338c-1.606,0-2.979,0.508-4.203,1.55l-1.044-1.223c1.311-1.251,3.458-1.937,5.247-1.937
			c3.34,0,5.487,1.49,5.487,4.977V63.636z M169.259,62.503c-2.981,0-5.965,0.749-5.965,3.105c0,1.697,1.639,2.564,3.132,2.564
			c3.815,0,4.799-2.448,4.799-4.744v-0.926H169.259z"/>
		<path fill="#FFDD00" d="M177.216,46.883h1.788v11.182h0.059c1.104-1.909,3.46-2.775,5.516-2.775c4.232,0,7.244,3.042,7.244,7.246
			c0,4.2-3.012,7.241-7.244,7.241c-2.056,0-4.411-0.864-5.516-2.771h-0.059v2.416h-1.788V46.883z M184.579,68.173
			c3.37,0,5.456-2.538,5.456-5.636c0-3.104-2.086-5.636-5.456-5.636c-3.25,0-5.753,2.532-5.753,5.636
			C178.826,65.635,181.329,68.173,184.579,68.173z"/>
		<path fill="#FFDD00" d="M197.006,48.853c0.745,0,1.343,0.595,1.343,1.341c0,0.744-0.598,1.34-1.343,1.34
			c-0.744,0-1.336-0.596-1.336-1.34C195.67,49.448,196.262,48.853,197.006,48.853z M196.114,55.649h1.788v13.773h-1.788V55.649z"/>
		<path fill="#FFDD00" d="M209.706,57.259h-3.936v8.972c0,1.223,0.718,1.942,1.909,1.942c0.688,0,1.401-0.212,2.026-0.479
			l0.148,1.608c-0.653,0.238-1.638,0.475-2.321,0.475c-2.564,0-3.551-1.579-3.551-3.547v-8.972h-2.978v-1.609h2.978v-3.964h1.788
			v3.964h3.936V57.259z"/>
		<path fill="#FFDD00" d="M223.599,63.636c0,2.684,0.057,4.206,0.269,5.787h-1.67c-0.118-0.686-0.181-1.462-0.181-2.237h-0.059
			c-1.012,1.76-2.504,2.592-4.832,2.592c-2.352,0-4.857-1.161-4.857-4.084c0-4.201,4.92-4.62,7.633-4.62h2.087v-0.834
			c0-2.386-1.67-3.338-3.876-3.338c-1.613,0-2.983,0.508-4.204,1.55l-1.045-1.223c1.312-1.251,3.459-1.937,5.249-1.937
			c3.341,0,5.486,1.49,5.486,4.977V63.636z M220.018,62.503c-2.978,0-5.959,0.749-5.959,3.105c0,1.697,1.638,2.564,3.13,2.564
			c3.815,0,4.8-2.448,4.8-4.744v-0.926H220.018z"/>
		<path fill="#FFDD00" d="M235.1,57.259h-3.934v8.972c0,1.223,0.716,1.942,1.908,1.942c0.688,0,1.402-0.212,2.025-0.479l0.15,1.608
			c-0.655,0.238-1.64,0.475-2.324,0.475c-2.563,0-3.547-1.579-3.547-3.547v-8.972h-2.981v-1.609h2.981v-3.964h1.787v3.964h3.934
			V57.259z"/>
	</g>
	<g>
		<polygon fill="#00ADEE" points="50.101,14.176 25.548,28.338 25.548,56.701 1,42.525 1,14.176 25.548,0 		"/>
		<polygon fill="#EC1940" points="99.204,14.176 99.204,42.525 74.654,56.701 74.654,28.338 50.101,14.176 74.654,0 		"/>
		<polygon fill="#8BC53F" points="50.101,14.176 50.101,42.525 25.548,56.701 25.548,28.338 		"/>
		<polygon fill="#F9A51A" points="74.654,28.338 74.654,56.701 50.101,42.525 50.101,14.176 		"/>
		<polygon fill="#FFDD00" points="74.654,56.701 74.654,56.836 50.101,71.011 25.548,56.836 25.548,56.701 50.101,42.525 		"/>
	</g>
</g>
</svg>
