<svg display="none" width="0" height="0" version="1.1" xmlns="http://www.w3.org/2000/svg" xmlns:xlink="http://www.w3.org/1999/xlink">
<defs>
<symbol id="ico-drupal" viewBox="0 0 928 1024">
	<title>drupal</title>
	<path class="path1" d="M670.062 198.327c-50.176-31.232-97.536-43.52-144.823-74.752-29.294-19.858-69.961-67.182-104.082-107.849-6.583 65.28-26.478 91.831-49.225 110.775-48.165 37.778-78.482 49.079-120.174 71.826-34.962 18.030-225.17 131.547-225.17 375.662s205.385 423.936 433.371 423.936c228.096 0 425.874-165.595 425.874-416.366-0.037-250.807-185.527-364.288-215.771-383.232zM673.902 902.473c-4.754 4.681-48.274 34.962-99.365 39.753-51.090 4.681-120.21 7.57-161.792-30.318-6.583-6.619-4.754-16.055 0-19.822 4.754-3.84 8.485-6.693 14.19-6.693 5.778 0 4.718 0 7.607 1.902 18.944 15.177 47.287 27.429 107.813 27.429 60.599 0 103.205-16.969 122.075-31.232 8.521-6.656 12.325-0.951 13.275 2.853 0.914 3.767 2.779 9.472-3.803 16.128zM509.915 822.784c10.386-9.472 27.465-24.649 43.557-31.232 16.091-6.619 24.539-5.669 39.717-5.669 15.104 0 31.232 0.914 42.569 8.558 11.301 7.57 17.993 24.576 21.723 33.975 3.803 9.509 0 15.141-7.497 19.017-6.619 3.767-7.57 1.865-14.226-10.423-6.583-12.251-12.288-24.649-45.385-24.649s-43.52 11.41-59.611 24.649c-16.055 13.202-21.797 17.957-27.465 10.423s-3.803-15.177 6.619-24.649zM755.858 801.353c-34.158-2.889-102.217-108.837-145.701-110.738-54.821-1.902-174.117 114.615-267.813 114.615-56.795 0-73.801-8.521-92.672-20.882-28.453-19.858-42.642-50.103-41.728-91.794 1.024-73.838 70.034-142.848 157.147-143.799 110.629-0.951 187.355 109.678 243.127 108.837 47.323-0.914 138.203-93.696 182.711-93.696 47.287 0 60.489 49.115 60.489 78.519 0 29.294-9.399 82.322-32.183 115.419-22.601 33.17-36.827 45.458-63.378 43.52z"></path>
</symbol>
<symbol id="ico-facebook" viewBox="0 0 549 1024">
	<title>facebook</title>
	<path class="path1" d="M508.818 175.141c-44.105 0-91.721 0-114.249 0-22.601 0-45.495 23.625-45.495 41.179 0 17.481 0 117.431 0 117.431s141.166 0 159.488 0c-6.437 90.075-19.566 172.434-19.566 172.434h-140.69v510.501h-209.664v-510.501h-102.071v-171.776h102.071c0 0 0-114.761 0-140.507 0-25.673-5.193-197.595 214.857-197.595 29.477 0 96.402 0 155.355 0-0.037 74.606-0.037 155.392-0.037 178.834z"></path>
</symbol>
<symbol id="ico-github" viewBox="0 0 1088 1024">
	<title>github</title>
	<path class="path1" d="M543.963 33.499c-270.885 0-490.569 219.648-490.569 490.606 0 216.759 140.544 400.64 335.543 465.518 24.539 4.498 33.463-10.642 33.463-23.625 0-11.63-0.402-42.533-0.658-83.456-136.448 29.659-165.303-65.755-165.303-65.755-22.309-56.649-54.455-71.79-54.455-71.79-44.544-30.391 3.365-29.806 3.365-29.806 49.225 3.511 75.154 50.615 75.154 50.615 43.776 74.935 114.834 53.285 142.775 40.741 4.462-31.707 17.152-53.358 31.159-65.573-108.946-12.434-223.451-54.455-223.451-242.469 0-53.577 19.127-97.39 50.469-131.657-5.010-12.471-21.87-62.354 4.864-129.902 0 0 41.179-13.202 134.912 50.286 39.131-10.862 81.079-16.311 122.807-16.494 41.691 0.183 83.602 5.632 122.807 16.494 93.696-63.488 134.802-50.286 134.802-50.286 26.734 67.547 9.911 117.431 4.901 129.829 31.378 34.304 50.395 78.080 50.395 131.657 0 188.453-114.725 229.925-224 242.030 17.627 15.177 33.28 45.129 33.28 90.88 0 65.573-0.585 118.455-0.585 134.583 0 13.129 8.814 28.343 33.755 23.625 194.779-64.987 335.177-248.759 335.177-465.481 0-270.921-219.648-490.569-490.606-490.569z"></path>
</symbol>
<symbol id="ico-gitlab" viewBox="65 70 220 220">
	<title>gitlab</title>
        <path class="path1" d="M282.83,170.73l-.27-.69-26.14-68.22a6.81,6.81,0,0,0-2.69-3.24,7,7,0,0,0-8,.43,7,7,0,0,0-2.32,3.52l-17.65,54H154.29l-17.65-54A6.86,6.86,0,0,0,134.32,99a7,7,0,0,0-8-.43,6.87,6.87,0,0,0-2.69,3.24L97.44,170l-.26.69a48.54,48.54,0,0,0,16.1,56.1l.09.07.24.17,39.82,29.82,19.7,14.91,12,9.06a8.07,8.07,0,0,0,9.76,0l12-9.06,19.7-14.91,40.06-30,.1-.08A48.56,48.56,0,0,0,282.83,170.73Z"/>
        <path class="path1" d="M282.83,170.73l-.27-.69a88.3,88.3,0,0,0-35.15,15.8L190,229.25c19.55,14.79,36.57,27.64,36.57,27.64l40.06-30,.1-.08A48.56,48.56,0,0,0,282.83,170.73Z"/>
        <path class="path1" d="M153.43,256.89l19.7,14.91,12,9.06a8.07,8.07,0,0,0,9.76,0l12-9.06,19.7-14.91S209.55,244,190,229.25C170.45,244,153.43,256.89,153.43,256.89Z"/>
        <path class="path1" d="M132.58,185.84A88.19,88.19,0,0,0,97.44,170l-.26.69a48.54,48.54,0,0,0,16.1,56.1l.09.07.24.17,39.82,29.82s17-12.85,36.57-27.64Z"/>
</symbol>
<symbol id="ico-gplus" viewBox="0 0 1189 1024">
	<title>gplus</title>
	<path class="path1" d="M1117.038 420.389h-163.584v-163.584c0-12.507-10.094-22.638-22.565-22.638h-46.555c-12.544 0-22.674 10.13-22.674 22.638v163.584h-163.547c-12.507 0-22.638 10.167-22.638 22.638v46.629c0 12.471 10.13 22.638 22.638 22.638h163.547v163.621c0 12.507 10.13 22.638 22.674 22.638h46.555c12.471 0 22.565-10.13 22.565-22.638v-163.621h163.584c12.471 0 22.601-10.13 22.601-22.638v-46.629c0-12.471-10.13-22.638-22.601-22.638z"></path>
	<path class="path2" d="M567.406 563.822c-34.414-24.357-65.682-60.087-66.231-71.058 0-20.005 1.755-29.55 46.592-64.475 58.002-45.422 89.929-105.106 89.929-168.155 0-57.161-17.518-107.959-47.25-143.653h23.040c4.827 0 9.509-1.499 13.349-4.279l64.329-46.629c8.009-5.705 11.337-15.945 8.302-25.271-3.072-9.326-11.703-15.689-21.504-15.689h-287.781c-31.488 0-63.488 5.522-94.866 16.347-104.887 36.169-178.213 125.586-178.213 217.307 0 130.011 100.645 228.571 235.227 231.68-2.633 10.313-3.95 20.443-3.95 30.391 0 20.041 5.083 38.985 15.506 57.307-1.207 0.073-2.377 0.073-3.694 0.073-128.256 0-244.078 62.939-288.037 156.672-11.447 24.357-17.298 49.006-17.298 73.326 0 23.625 6.107 46.482 17.993 67.803 27.611 49.445 86.967 87.808 167.168 108.069 41.399 10.459 85.87 15.799 132.059 15.799 41.509 0 81.042-5.339 117.65-15.982 114.066-33.097 187.758-117.065 187.758-214.089 0-93.001-29.879-148.663-110.080-205.495zM203.959 776.814c0-67.73 85.979-127.086 183.881-127.086l2.67 0.037c21.321 0.219 42.094 3.401 61.733 9.399 6.729 4.645 13.202 9.106 19.456 13.275 45.385 30.939 75.337 51.346 83.712 84.151 1.975 8.229 2.926 16.494 2.926 24.466 0 84.297-62.83 127.086-186.77 127.086-94.025 0-167.607-57.71-167.607-131.328zM293.083 137.362c15.323-17.481 35.365-26.697 57.893-26.697l2.56 0.037c63.598 1.902 124.453 72.777 135.643 158.062 6.254 47.762-4.352 92.635-28.343 120.027-15.323 17.518-35.072 26.734-58.514 26.734 0 0 0 0-0.037 0h-1.024c-62.318-1.902-124.453-75.483-135.57-160.695-6.29-47.616 3.73-90.405 27.392-117.467z"></path>
</symbol>
<symbol id="ico-instagram" viewBox="0 0 1097 1024">
	<title>instagram</title>
	<path class="path1" d="M841.691 1.061h-576c-120.686 0-218.88 98.231-218.88 218.88v576c0 120.686 98.231 218.88 218.88 218.88h576c120.686 0 218.88-98.231 218.88-218.88v-576c-0.037-120.686-98.231-218.88-218.88-218.88zM732.306 163.182c0-19.675 16.055-35.73 35.73-35.73h107.191c19.712 0 35.767 16.055 35.767 35.73v107.227c0 19.639-16.018 35.73-35.767 35.73h-107.191c-19.639 0-35.73-16.091-35.73-35.73v-107.227zM841.691 961.024h-576c-91.026 0-165.083-74.057-165.083-165.12v-428.727h236.069c51.31-62.976 129.426-103.205 216.978-103.205 87.589 0 165.705 40.229 217.051 103.205h236.032v428.763c-0.037 91.026-74.021 165.083-165.047 165.083z"></path>
	<path class="path2" d="M786.871 529.591c0 128.781-104.398 233.179-233.179 233.179s-233.179-104.398-233.179-233.179c0-128.781 104.398-233.179 233.179-233.179s233.179 104.398 233.179 233.179z"></path>
</symbol>
<symbol id="ico-linkedin" viewBox="0 0 1097 1024">
	<title>linkedin</title>
	<path class="path1" d="M816.64 319.195c-120.649 0-174.446 66.341-204.581 112.859v2.158h-1.353c0.366-0.658 0.914-1.39 1.353-2.158v-96.805h-226.889c2.999 64 0 682.679 0 682.679h226.889v-381.33c0-20.37 1.573-40.704 7.57-55.333 16.421-40.777 53.723-83.054 116.443-83.054 82.066 0 114.944 62.61 114.944 154.441v365.239h226.926v-391.424c0-209.774-111.945-307.273-261.303-307.273z"></path>
	<path class="path2" d="M32.658 335.25h227.035v682.679h-227.035v-682.679z"></path>
	<path class="path3" d="M147.639 6.107c-77.641 0-128.439 50.981-128.439 117.906 0 65.609 49.335 117.979 125.44 117.979h1.536c79.104 0 128.366-52.37 128.366-117.979-1.499-66.926-49.262-117.906-126.903-117.906z"></path>
</symbol>
<symbol id="ico-soundcloud" viewBox="0 0 1806 1024">
	<title>soundcloud</title>
	<path class="path1" d="M117.248 581.083c-3.401 0-6.071 2.633-6.51 6.363l-11.849 90.075 11.849 88.539c0.439 3.767 3.109 6.327 6.51 6.327 3.291 0 5.961-2.56 6.473-6.29v0 0 0l14.043-88.576-14.043-90.075c-0.512-3.73-3.218-6.363-6.473-6.363zM183.918 531.858c-0.549-3.877-3.328-6.546-6.766-6.546s-6.29 2.743-6.766 6.546c0 0.037-15.945 145.627-15.945 145.627l15.982 142.446c0.475 3.803 3.291 6.583 6.766 6.583 3.401 0 6.181-2.706 6.729-6.583l18.139-142.446-18.139-145.627zM435.127 397.531c-6.546 0-11.959 5.339-12.251 12.178l-12.69 267.959 12.69 173.129c0.329 6.802 5.742 12.142 12.251 12.142 6.473 0 11.886-5.339 12.251-12.142v0.073l14.373-173.202-14.373-267.959c-0.329-6.802-5.742-12.178-12.251-12.178zM305.115 490.679c-5.010 0-9.143 4.023-9.545 9.362l-14.299 177.518 14.299 171.776c0.402 5.303 4.535 9.289 9.545 9.289 4.974 0 9.070-3.986 9.509-9.289l16.238-171.776-16.238-177.554c-0.439-5.339-4.535-9.326-9.509-9.326zM567.259 862.866c8.119 0 14.702-6.51 15.067-14.848l12.434-170.277-12.434-356.718c-0.329-8.375-6.912-14.921-15.067-14.921s-14.775 6.546-15.031 14.958c0 0-11.045 356.681-11.045 356.681l11.045 170.277c0.256 8.338 6.875 14.848 15.031 14.848zM837.778 863.707c11.154 0 20.37-9.216 20.553-20.517v0l8.667-165.339-8.631-412.014c-0.219-11.301-9.435-20.48-20.553-20.48-11.227 0-20.443 9.179-20.59 20.517l-7.79 411.794c0 0.293 7.753 165.595 7.753 165.595 0.183 11.227 9.399 20.443 20.59 20.443zM701.513 863.086c9.728 0 17.518-7.79 17.774-17.774v0.146l10.569-167.68-10.569-359.314c-0.293-9.947-8.119-17.701-17.81-17.701-9.765 0-17.591 7.753-17.81 17.701l-9.399 359.351 9.399 167.643c0.183 9.838 8.046 17.627 17.847 17.627zM369.883 861.513c5.778 0 10.459-4.645 10.898-10.715l15.287-173.202-15.287-164.754c-0.439-6.071-5.083-10.679-10.898-10.679-5.851 0-10.533 4.608-10.898 10.752l-13.495 164.681 13.495 173.202c0.366 6.071 5.047 10.715 10.898 10.715zM240.859 852.005c4.242 0 7.643-3.365 8.119-7.936l17.225-166.51-17.189-172.837c-0.475-4.608-3.913-7.936-8.155-7.936-4.279 0-7.68 3.328-8.119 7.936 0 0.037-15.141 172.837-15.141 172.837l15.141 166.437c0.439 4.645 3.84 8.009 8.119 8.009zM769.353 312.466c-10.569 0-19.017 8.375-19.2 19.127l-8.558 346.185 8.558 166.583c0.219 10.642 8.631 19.017 19.2 19.017 10.533 0 18.944-8.375 19.2-19.054v0.146l9.618-166.619-9.618-346.258c-0.256-10.752-8.667-19.127-19.2-19.127zM500.955 863.232c7.314 0 13.312-5.925 13.678-13.495l13.385-172.032-13.385-329.216c-0.366-7.607-6.363-13.531-13.678-13.531-7.351 0-13.349 5.961-13.678 13.531l-11.849 329.179 11.886 172.105c0.293 7.497 6.29 13.458 13.641 13.458zM650.496 846.994v-0.073l11.52-169.179-11.52-368.75c-0.256-9.143-7.461-16.347-16.384-16.347-8.96 0-16.165 7.168-16.384 16.347l-10.24 368.75 10.24 169.289c0.219 9.070 7.424 16.201 16.384 16.201s16.091-7.131 16.384-16.274v0.037zM1521.079 465.189c-27.282 0-53.358 5.522-77.129 15.506-15.872-179.785-166.619-320.805-350.501-320.805-44.983 0-88.869 8.85-127.561 23.845-15.067 5.815-19.054 11.813-19.2 23.479v633.125c0.146 12.142 9.655 22.345 21.541 23.589 0.549 0 549.339 0.293 552.887 0.293 110.153 0 199.497-89.271 199.497-199.461s-89.344-199.57-199.534-199.57zM905.874 206.629c-11.959 0-21.833 9.838-22.016 21.906l-8.997 449.353 9.033 163.109c0.146 11.849 9.984 21.723 21.979 21.723s21.797-9.874 22.016-21.943v0.219l9.765-163.109-9.801-449.39c-0.219-12.069-10.021-21.87-21.979-21.87z"></path>
</symbol>
<symbol id="ico-twitter" viewBox="0 0 1289 1024">
	<title>twitter</title>
	<path class="path1" d="M1247.232 138.277c-44.398 19.639-92.014 32.951-142.007 38.949 51.054-30.61 90.222-79.067 108.727-136.814-47.835 28.306-100.718 48.896-157.074 59.977-45.056-48.018-109.312-78.043-180.443-78.043-136.594 0-247.296 110.702-247.296 247.259 0 19.383 2.194 38.217 6.4 56.357-205.458-10.35-387.694-108.8-509.623-258.377-21.321 36.535-33.499 78.994-33.499 124.306 0 85.76 43.666 161.463 110.007 205.787-40.521-1.317-78.665-12.398-112.018-30.976 0 1.061 0 2.121 0 3.145 0 119.771 85.248 219.685 198.327 242.432-20.736 5.632-42.606 8.667-65.134 8.667-15.945 0-31.415-1.573-46.519-4.462 31.451 98.267 122.807 169.765 230.985 171.703-84.626 66.304-191.232 105.911-307.054 105.911-19.931 0-39.643-1.207-58.99-3.511 109.422 70.144 239.36 111.067 378.99 111.067 454.839 0 703.525-376.759 703.525-703.488 0-10.679-0.219-21.358-0.768-32 48.384-34.779 90.295-78.336 123.465-127.89z"></path>
</symbol>

<symbol id="ico-calendar" viewBox="0 0 197 195">
  <title>calendar</title>
 <g transform="translate(31.641 -417)">
  <g fill="#acacac">
   <path d="m-21.018 440.72c-5.8856 0-10.623 4.7375-10.623 10.623v141.81c0 5.8857 4.7375 10.626 10.623 10.626h142.65c5.8856 0 10.623-4.7401 10.623-10.626v-141.81c0-5.8856-4.7375-10.623-10.623-10.623h-10.459v12.249c0 5.0164-5.3282 9.0546-11.945 9.0546-6.6163 0-11.942-4.0383-11.942-9.0546v-12.249h-68.473v12.249c0 5.0164-5.3256 9.0546-11.942 9.0546-6.6163 0-11.942-4.0383-11.942-9.0546v-12.249zm3.639 32.137h134.95c2.7299 0 4.9292 2.1993 4.9292 4.9292v111.69c0 2.7299-2.1993 4.9266-4.9292 4.9266h-134.95c-2.7299 0-4.9266-2.1967-4.9266-4.9266v-111.69c0-2.7299 2.1967-4.9292 4.9266-4.9292z" stroke-width="0"/>
   <g stroke-linecap="round" stroke-linejoin="bevel" stroke-width=".70182">
    <path d="m57.445 477.09h16.633c3.4466 0 6.2211 2.7746 6.2211 6.2211v12.106c0 3.4465-2.7745 6.2212-6.2211 6.2212h-16.633c-3.4465 0-6.2211-2.7746-6.2211-6.2212v-12.106c0-3.4465 2.7747-6.2211 6.2211-6.2211z"/>
    <path d="m91.456 477.09h16.633c3.4465 0 6.2212 2.7746 6.2212 6.2211v12.106c0 3.4465-2.7747 6.2212-6.2212 6.2212h-16.633c-3.4465 0-6.2211-2.7746-6.2211-6.2212v-12.106c0-3.4465 2.7747-6.2211 6.2211-6.2211z"/>
    <path d="m23.61 506.57h16.633c3.4465 0 6.2211 2.7746 6.2211 6.2212v12.106c0 3.4465-2.7747 6.2212-6.2211 6.2212h-16.633c-3.4465 0-6.2211-2.7746-6.2211-6.2212v-12.106c0-3.4465 2.7747-6.2212 6.2211-6.2212z"/>
    <path d="m57.621 506.57h16.633c3.4465 0 6.2211 2.7746 6.2211 6.2212v12.106c0 3.4465-2.7747 6.2212-6.2211 6.2212h-16.633c-3.4466 0-6.2211-2.7746-6.2211-6.2212v-12.106c0-3.4465 2.7745-6.2212 6.2211-6.2212z"/>
    <path d="m91.631 506.57h16.633c3.4466 0 6.2213 2.7746 6.2213 6.2212v12.106c0 3.4465-2.7747 6.2212-6.2213 6.2212h-16.633c-3.4466 0-6.2213-2.7746-6.2213-6.2212v-12.106c0-3.4465 2.7747-6.2212 6.2213-6.2212z"/>
    <path d="m-10.4 506.57h16.633c3.4465 0 6.2211 2.7746 6.2211 6.2212v12.106c0 3.4465-2.7747 6.2212-6.2211 6.2212h-16.633c-3.4466 0-6.2211-2.7746-6.2211-6.2212v-12.106c0-3.4465 2.7745-6.2212 6.2211-6.2212z"/>
    <path d="m23.61 536.06h16.633c3.4465 0 6.2211 2.7746 6.2211 6.2212v12.106c0 3.4465-2.7747 6.2212-6.2211 6.2212h-16.633c-3.4465 0-6.2211-2.7746-6.2211-6.2212v-12.106c0-3.4465 2.7747-6.2212 6.2211-6.2212z"/>
    <path d="m57.621 536.06h16.633c3.4465 0 6.2211 2.7746 6.2211 6.2212v12.106c0 3.4465-2.7747 6.2212-6.2211 6.2212h-16.633c-3.4466 0-6.2211-2.7746-6.2211-6.2212v-12.106c0-3.4465 2.7745-6.2212 6.2211-6.2212z"/>
    <path d="m91.631 536.06h16.633c3.4466 0 6.2213 2.7746 6.2213 6.2212v12.106c0 3.4465-2.7747 6.2212-6.2213 6.2212h-16.633c-3.4466 0-6.2213-2.7746-6.2213-6.2212v-12.106c0-3.4465 2.7747-6.2212 6.2213-6.2212z"/>
    <path d="m-10.4 536.06h16.633c3.4465 0 6.2211 2.7746 6.2211 6.2212v12.106c0 3.4465-2.7747 6.2212-6.2211 6.2212h-16.633c-3.4466 0-6.2211-2.7746-6.2211-6.2212v-12.106c0-3.4465 2.7745-6.2212 6.2211-6.2212z"/>
    <path d="m23.61 565.54h16.633c3.4465 0 6.2211 2.7746 6.2211 6.2212v12.106c0 3.4465-2.7747 6.2212-6.2211 6.2212h-16.633c-3.4465 0-6.2211-2.7746-6.2211-6.2212v-12.106c0-3.4465 2.7747-6.2212 6.2211-6.2212z"/>
    <path d="m57.621 565.54h16.633c3.4465 0 6.2211 2.7746 6.2211 6.2212v12.106c0 3.4465-2.7747 6.2212-6.2211 6.2212h-16.633c-3.4466 0-6.2211-2.7746-6.2211-6.2212v-12.106c0-3.4465 2.7745-6.2212 6.2211-6.2212z"/>
    <path d="m91.631 565.54h16.633c3.4466 0 6.2213 2.7746 6.2213 6.2212v12.106c0 3.4465-2.7747 6.2212-6.2213 6.2212h-16.633c-3.4466 0-6.2213-2.7746-6.2213-6.2212v-12.106c0-3.4465 2.7747-6.2212 6.2213-6.2212z"/>
    <path d="m-10.4 565.54h16.633c3.4465 0 6.2211 2.7746 6.2211 6.2212v12.106c0 3.4465-2.7747 6.2212-6.2211 6.2212h-16.633c-3.4466 0-6.2211-2.7746-6.2211-6.2212v-12.106c0-3.4465 2.7745-6.2212 6.2211-6.2212z"/>
    <path d="m23.435 477.09h16.633c3.4465 0 6.2211 2.7746 6.2211 6.2211v12.106c0 3.4465-2.7747 6.2212-6.2211 6.2212h-16.633c-3.4466 0-6.2211-2.7746-6.2211-6.2212v-12.106c0-3.4465 2.7745-6.2211 6.2211-6.2211z"/>
    <path d="m-10.575 477.09h16.633c3.4466 0 6.2211 2.7746 6.2211 6.2211v12.106c0 3.4465-2.7745 6.2212-6.2211 6.2212h-16.633c-3.4465 0-6.2211-2.7746-6.2211-6.2212v-12.106c0-3.4465 2.7747-6.2211 6.2211-6.2211z"/>
   </g>
  </g>
  <g transform="matrix(1.2541 0 0 1.2541 -106.18 -203.11)" stroke="#acacac">
   <path d="m201.79 609.08a38.022 38.022 0 0 1-38.022 38.022 38.022 38.022 0 0 1-38.022-38.022 38.022 38.022 0 0 1 38.022-38.022 38.022 38.022 0 0 1 38.022 38.022z" fill="#fdffff" stroke-width="7.3172"/>
   <path d="m162.86 588.6-0.11398 21.951 18.325 8.178" fill="none" stroke-linecap="round" stroke-width="9.707"/>
  </g>
  <path d="m6.8746 419.77c6.6163 0 11.943 4.0385 11.943 9.0548v24.146c0 5.0164-5.3265 9.0548-11.943 9.0548-6.6163 0-11.943-4.0384-11.943-9.0548v-24.146c0-5.0164 5.3265-9.0548 11.943-9.0548z" fill="#acacac" stroke="#fff" stroke-linecap="round" stroke-linejoin="bevel" stroke-width="5.5462"/>
  <path d="m99.232 419.77c6.6163 0 11.943 4.0385 11.943 9.0548v24.146c0 5.0164-5.3265 9.0548-11.943 9.0548-6.6163 0-11.943-4.0384-11.943-9.0548v-24.146c0-5.0164 5.3265-9.0548 11.943-9.0548z" fill="#acacac" stroke="#fff" stroke-linecap="round" stroke-linejoin="bevel" stroke-width="5.5462"/>
 </g>
</symbol>

<symbol id="ico-email" viewBox="0 0 197 195">
  <title>email</title>
  <g transform="translate(-292.71 -346.16)">
  <path d="m450.85 392.83c-14.398-0.0462-34.334 0.074-61.153 0.14341l-86.454 0.14341c-0.0491-1e-3 -0.0962 0-0.14437 0-5.1383-1e-3 -9.3966 4.1131-9.3966 9.2523 0 0.0694-7.6e-4 0.0972 0 0.14341l0.28912 64.623 0.28913 63.318c-0.0144 0.1943 0 0.38398 0 0.57828 0 5.1383 4.1142 9.2523 9.2523 9.2523h87.031c52.368 0 76.091 0.0879 87.027-0.57828 1.2075-0.0926 2.3674-0.38859 3.4696-0.57825 3.3827-1.0515 5.8539-3.9281 6.361-7.5175 0.12119-0.46724 0.13606-0.89561 0.14437-1.3009 0.22114-10.547 0.53835-35.283 0.72283-63.323 0.25676-38.844 0.46831-56.583-0.14437-64.766 0.0851-4.9713-4.2177-9.0062-9.2523-8.9632-4.8542-0.18043-13.648-0.40248-28.046-0.43487zm-130.55 15.035h71.271c39.212 0 71.294 0.35622 71.271 0.72307-0.0232 0.3701-15.091 15.957-33.395 34.551-29.115 29.579-33.692 33.753-36.431 34.118-1.722 0.22668-3.8852 0.0648-4.9153-0.57827-1.5675-0.94744-55-54.991-64.766-65.488l-3.0359-3.3253zm-11.276 11.277 23.275 23.275c12.792 12.786 23.275 23.455 23.275 23.709 0 0.25444-10.509 11.11-23.275 24.143l-23.275 23.709v-47.418zm163.22 2.1683 0.57826 8.2406c0.31366 4.5582 0.66681 25.329 0.72285 46.117 0.0537 20.788-0.20911 37.805-0.57828 37.732-0.36917-0.074-11.025-10.556-23.565-23.276l-22.697-23.131 22.697-22.842 22.842-22.842zm-105.68 55.514 6.7949 6.6501c7.4847 7.2668 11.08 8.8836 18.794 8.8184 6.6806-0.0694 12.004-2.4907 18.939-8.9627l5.6384-5.3492 23.131 23.564 23.131 23.565h-143.7l7.6618-7.8066c4.1682-4.3051 14.725-15.178 23.565-24.143l16.047-16.336z"/>
  </g>
</symbol>

<symbol id="ico-website" viewBox="0 0 1445 1024">
	<title>website</title>
	<path class="path1" d="M1404.599 986.075h-1354.496v-948.151h1354.496v948.151zM104.302 931.877h1246.135v-839.753h-1246.135v839.753z"></path>
	<path class="path2" d="M77.202 200.448h1300.297v54.162h-1300.297v-54.162z"></path>
	<path class="path3" d="M456.448 471.369h541.769v54.199h-541.769v-54.199z"></path>
	<path class="path4" d="M619.008 579.73h216.722v54.199h-216.722v-54.199z"></path>
	<path class="path5" d="M158.464 119.186h54.162v54.162h-54.162v-54.162z"></path>
	<path class="path6" d="M266.825 119.186h54.162v54.162h-54.162v-54.162z"></path>
	<path class="path7" d="M375.186 119.186h54.162v54.162h-54.162v-54.162z"></path>
</symbol>
<symbol id="ico-youtube" viewBox="0 0 910 1024">
	<title>youtube</title>
	<path class="path1" d="M298.971 320.256c0 22.089 6.327 39.643 19.054 52.736 12.654 13.093 29.586 19.602 50.761 19.602 21.943 0 39.205-6.327 51.749-18.981s18.798-30.171 18.798-52.407v-134.327c0-19.822-6.363-36.023-19.163-48.603-12.763-12.581-29.147-18.907-49.189-18.907-21.979 0-39.461 5.998-52.517 17.957-13.019 11.922-19.493 27.977-19.493 48.091v134.839zM348.709 183.479c0-5.669 1.865-10.277 5.522-13.751 3.657-3.511 8.485-5.266 14.373-5.266 6.4 0 11.593 1.719 15.506 5.266 3.95 3.474 5.925 8.082 5.925 13.751v141.641c0 7.022-1.902 12.471-5.778 16.457-3.84 3.986-9.106 5.998-15.616 5.998-6.4 0-11.301-1.938-14.738-5.851-3.474-3.95-5.193-9.472-5.193-16.64v-141.605zM183.625 386.011h54.455v-146.249l63.342-206.263h-55.333l-33.682 140.91h-3.401l-35.365-140.91h-54.821l64.768 212.846v139.666zM514.121 389.778c9.070 0 18.395-2.779 28.087-8.265 9.582-5.522 18.871-13.605 27.794-24.174v28.672h48.347v-260.023h-48.347v197.376c-4.571 5.705-9.509 10.386-14.958 14.007-5.413 3.657-9.911 5.449-13.495 5.449-4.571 0-7.826-1.353-9.838-4.133-2.048-2.743-3.035-7.205-3.035-13.385v-199.314h-48.347v217.344c0 15.506 2.853 27.136 8.485 34.853 5.669 7.717 14.080 11.593 25.307 11.593zM857.71 583.278c0-62.793-51.566-113.737-115.090-113.737-90.661-3.803-183.406-5.486-278.053-5.303-94.61-0.183-187.392 1.536-278.053 5.303-63.525 0-115.090 50.944-115.090 113.737-3.803 49.737-5.449 99.511-5.303 149.248-0.146 49.701 1.499 99.474 5.303 149.175 0 62.83 51.566 113.737 115.090 113.737 90.661 3.803 183.406 5.486 278.053 5.339 94.647 0.183 187.429-1.499 278.053-5.339 63.525 0 115.090-50.944 115.090-113.737 3.803-49.701 5.413-99.474 5.266-149.175 0.183-49.737-1.463-99.474-5.266-149.248zM238.665 903.717h-54.455v-301.312h-56.32v-51.163h167.131v51.163h-56.32v301.312zM432.311 903.717h-48.347v-28.709c-8.887 10.606-18.176 18.688-27.831 24.174-9.618 5.522-18.981 8.302-28.050 8.302-11.191 0-19.602-3.84-25.271-11.593-5.632-7.717-8.485-19.31-8.485-34.779v-217.381h48.311v199.314c0 6.217 1.061 10.606 3.072 13.422 2.011 2.706 5.339 4.096 9.838 4.096 3.584 0 8.082-1.829 13.495-5.449 5.413-3.657 10.386-8.375 14.958-14.007v-197.376h48.347v259.986zM618.423 849.81c0 18.469-3.803 32.695-11.337 42.496-7.607 9.801-18.578 14.665-32.878 14.665-9.435 0-17.883-1.938-25.271-5.669-7.387-3.803-14.263-9.655-20.626-17.554v19.968h-48.823v-352.512h48.823v113.481c6.473-7.936 13.422-13.97 20.736-18.103 7.314-4.096 14.775-6.181 22.235-6.181 15.323 0 26.99 5.522 35.035 16.677 8.046 11.118 12.105 27.246 12.105 48.494v144.238zM797.147 779.813h-92.453v49.006c0 13.678 1.536 23.186 4.791 28.416 3.145 5.339 8.594 7.973 16.274 7.973 8.046 0 13.641-2.231 16.823-6.729 3.218-4.425 4.827-14.373 4.827-29.696v-18.066h49.737v19.566c0 26.661-6.071 46.702-18.176 60.197-12.142 13.495-30.208 20.261-54.272 20.261-21.65 0-38.729-7.168-51.127-21.467-12.398-14.336-18.615-33.975-18.615-58.99v-116.699c0-22.565 6.839-40.96 20.48-55.186 13.641-14.263 31.269-21.285 52.955-21.285 22.089 0 39.058 6.546 50.981 19.712 11.849 13.129 17.81 32.037 17.81 56.759v66.231zM726.235 682.642c-7.68 0-13.202 2.341-16.567 7.058-3.328 4.681-5.010 12.507-5.010 23.406v26.331h42.715v-26.331c0-10.898-1.719-18.725-5.083-23.406-3.328-4.718-8.667-7.058-16.055-7.058zM548.498 681.728c-3.474 0-6.875 0.841-10.203 2.523-3.365 1.755-6.729 4.389-9.947 7.973v162.011c3.877 4.206 7.717 7.278 11.41 9.143 3.73 1.865 7.607 2.779 11.666 2.779 5.925 0 10.277-1.829 13.093-5.449 2.779-3.657 4.169-9.618 4.169-17.883v-134.29c0-8.777-1.719-15.47-5.193-20.005-3.438-4.571-8.448-6.802-14.994-6.802z"></path>
</symbol>
</defs>
</svg>
